M48
INCH,TZ
T01C.015748
;LEADER: 12 
;HEADER: 
;CODE  : ASCII 
;FILE  : SCH_TRANSFER-1-2.drl for  ... layers TOP and BOTTOM
;DESIGN: SCH_TRANSFER.brd
;T01 Holesize 1. = 15.748031 Tolerance = +0.000000/-0.000000 PLATED MILS Quantity = 26
%
G90
T01
X96063Y93976
X59961Y61457
X14567Y114331
X16063Y128386
X86339Y101575
X72677Y108740
X99229Y66457
X28346Y45000
X120039Y95276
X112047Y122402
X83071Y122402
X75157Y79331
X30315Y70276
X90866Y107008
X44921Y89843
X64882Y83504
X53071Y61206
X90394Y83701
X85630Y89921
X54567Y98268
X37697Y93445
X8661Y110630
X81339Y129488
X133976Y129488
X108780Y65630
X139291Y65630
M30
