G04 ================== begin FILE IDENTIFICATION RECORD ==================*
G04 Layout Name:  SCH_TRANSFER.brd*
G04 Film Name:    FAB*
G04 File Format:  Gerber RS274X*
G04 File Origin:  Cadence Allegro 16.6-2015-S059*
G04 Origin Date:  Sun Dec 07 17:30:41 2025*
G04 *
G04 Layer:  MANUFACTURING/NCDRILL_LEGEND*
G04 Layer:  MANUFACTURING/NCDRILL_FIGURE*
G04 Layer:  MANUFACTURING/XSECTION_CHART*
G04 Layer:  MANUFACTURING/NCLEGEND-1-2*
G04 Layer:  BOARD GEOMETRY/OUTLINE*
G04 Layer:  BOARD GEOMETRY/DIMENSION*
G04 *
G04 Offset:    (0.0000 0.0000)*
G04 Mirror:    No*
G04 Mode:      Positive*
G04 Rotation:  0*
G04 FullContactRelief:  No*
G04 UndefLineWidth:     0.3000*
G04 ================== end FILE IDENTIFICATION RECORD ====================*
%FSLAX25Y25*MOIN*%
%IR0*IPPOS*OFA0.00000B0.00000*MIA0B0*SFA1.00000B1.00000*%
%AMMACRO10*
1,1,.011811,.025,0.0*
20,1,.011811,.025,0.0,.02462,-.004341,0.0*
1,1,.011811,.02462,-.004341*
20,1,.011811,.02462,-.004341,.023492,-.008551,0.0*
1,1,.011811,.023492,-.008551*
20,1,.011811,.023492,-.008551,.021651,-.0125,0.0*
1,1,.011811,.021651,-.0125*
20,1,.011811,.021651,-.0125,.019151,-.01607,0.0*
1,1,.011811,.019151,-.01607*
20,1,.011811,.019151,-.01607,.01607,-.019151,0.0*
1,1,.011811,.01607,-.019151*
20,1,.011811,.01607,-.019151,.0125,-.021651,0.0*
1,1,.011811,.0125,-.021651*
20,1,.011811,.0125,-.021651,.008551,-.023492,0.0*
1,1,.011811,.008551,-.023492*
20,1,.011811,.008551,-.023492,.004341,-.02462,0.0*
1,1,.011811,.004341,-.02462*
20,1,.011811,.004341,-.02462,0.0,-.025,0.0*
1,1,.011811,0.0,-.025*
20,1,.011811,0.0,-.025,-.004341,-.02462,0.0*
1,1,.011811,-.004341,-.02462*
20,1,.011811,-.004341,-.02462,-.008551,-.023492,0.0*
1,1,.011811,-.008551,-.023492*
20,1,.011811,-.008551,-.023492,-.0125,-.021651,0.0*
1,1,.011811,-.0125,-.021651*
20,1,.011811,-.0125,-.021651,-.01607,-.019151,0.0*
1,1,.011811,-.01607,-.019151*
20,1,.011811,-.01607,-.019151,-.019151,-.01607,0.0*
1,1,.011811,-.019151,-.01607*
20,1,.011811,-.019151,-.01607,-.021651,-.0125,0.0*
1,1,.011811,-.021651,-.0125*
20,1,.011811,-.021651,-.0125,-.023492,-.008551,0.0*
1,1,.011811,-.023492,-.008551*
20,1,.011811,-.023492,-.008551,-.02462,-.004341,0.0*
1,1,.011811,-.02462,-.004341*
20,1,.011811,-.02462,-.004341,-.025,0.0,0.0*
1,1,.011811,-.025,0.0*
20,1,.011811,-.025,0.0,-.02462,.004341,0.0*
1,1,.011811,-.02462,.004341*
20,1,.011811,-.02462,.004341,-.023492,.008551,0.0*
1,1,.011811,-.023492,.008551*
20,1,.011811,-.023492,.008551,-.021651,.0125,0.0*
1,1,.011811,-.021651,.0125*
20,1,.011811,-.021651,.0125,-.019151,.01607,0.0*
1,1,.011811,-.019151,.01607*
20,1,.011811,-.019151,.01607,-.01607,.019151,0.0*
1,1,.011811,-.01607,.019151*
20,1,.011811,-.01607,.019151,-.0125,.021651,0.0*
1,1,.011811,-.0125,.021651*
20,1,.011811,-.0125,.021651,-.008551,.023492,0.0*
1,1,.011811,-.008551,.023492*
20,1,.011811,-.008551,.023492,-.004341,.02462,0.0*
1,1,.011811,-.004341,.02462*
20,1,.011811,-.004341,.02462,0.0,.025,0.0*
1,1,.011811,0.0,.025*
20,1,.011811,0.0,.025,.004341,.02462,0.0*
1,1,.011811,.004341,.02462*
20,1,.011811,.004341,.02462,.008551,.023492,0.0*
1,1,.011811,.008551,.023492*
20,1,.011811,.008551,.023492,.0125,.021651,0.0*
1,1,.011811,.0125,.021651*
20,1,.011811,.0125,.021651,.01607,.019151,0.0*
1,1,.011811,.01607,.019151*
20,1,.011811,.01607,.019151,.019151,.01607,0.0*
1,1,.011811,.019151,.01607*
20,1,.011811,.019151,.01607,.021651,.0125,0.0*
1,1,.011811,.021651,.0125*
20,1,.011811,.021651,.0125,.023492,.008551,0.0*
1,1,.011811,.023492,.008551*
20,1,.011811,.023492,.008551,.02462,.004341,0.0*
1,1,.011811,.02462,.004341*
20,1,.011811,.02462,.004341,.025,0.0,0.0*
1,1,.011811,.025,0.0*
1,1,.011811,.0125,0.0*
20,1,.011811,.0125,0.0,-.0125,0.0,0.0*
1,1,.011811,-.0125,0.0*
1,1,.011811,0.0,.0125*
20,1,.011811,0.0,.0125,0.0,-.0125,0.0*
1,1,.011811,0.0,-.0125*
%
%ADD10MACRO10*%
%ADD11C,.003937*%
%ADD12C,.011811*%
G75*
%LPD*%
G75*
G36*
G01X-205787Y176694D02*
Y174427D01*
X-203287D01*
Y-22613D01*
X-205787D01*
Y-24880D01*
X-190787D01*
Y-22613D01*
X-193287D01*
Y174427D01*
X-190787D01*
Y176694D01*
X-205787D01*
G37*
G36*
G01X-225787Y-24880D02*
Y-22613D01*
X-165787D01*
Y-24880D01*
X-225787D01*
G37*
G36*
G01Y174427D02*
Y176694D01*
X-165787D01*
Y174427D01*
X-225787D01*
G37*
G54D10*
X8661Y110630D03*
X30315Y70276D03*
X28346Y45000D03*
X37697Y93445D03*
X16063Y128386D03*
X14567Y114331D03*
X70197Y-47923D03*
X53071Y61206D03*
X59961Y61457D03*
X54567Y98268D03*
X64882Y83504D03*
X44921Y89843D03*
X99229Y66457D03*
X85630Y89921D03*
X90394Y83701D03*
X75157Y79331D03*
X86339Y101575D03*
X96063Y93976D03*
X81339Y129488D03*
X90866Y107008D03*
X83071Y122402D03*
X72677Y108740D03*
X108780Y65630D03*
X120039Y95276D03*
X112047Y122402D03*
X139291Y65630D03*
X133976Y129488D03*
G54D11*
G01X-230039Y-33307D02*
X-228071D01*
G01X-227480D02*
X-225512D01*
G01X-224921D02*
X-222953D01*
G01X-222362D02*
X-220394D01*
G01X-219803D02*
X-217835D01*
G01X-217244D02*
X-215276D01*
G01X-214685D02*
X-212717D01*
G01X-212126D02*
X-210157D01*
G01X-209567D02*
X-207598D01*
G01X-207008D02*
X-205039D01*
G01X-204449D02*
X-202480D01*
G01X-201890D02*
X-199921D01*
G01X-199331D02*
X-197362D01*
G01X-196772D02*
X-194803D01*
G01X-194213D02*
X-192244D01*
G01X-191654D02*
X-189685D01*
G01X-189094D02*
X-187126D01*
G01X-186535D02*
X-184567D01*
G01X-183976D02*
X-182008D01*
G01X-181417D02*
X-179449D01*
G01X-178858D02*
X-176890D01*
G01X-176299D02*
X-174331D01*
G01X-173740D02*
X-171772D01*
G01X-171181D02*
X-169213D01*
G01X-168622D02*
X-166654D01*
G01X-166063D02*
X-164094D01*
G01X-163504D02*
X-161535D01*
G01X-228497Y-32651D02*
Y-30683D01*
X-227841D01*
X-227579Y-30781D01*
X-227382Y-30912D01*
X-227218Y-31109D01*
X-227087Y-31339D01*
X-227054Y-31667D01*
X-227087Y-31995D01*
X-227218Y-32225D01*
X-227382Y-32422D01*
X-227579Y-32553D01*
X-227841Y-32651D01*
X-228497D01*
G01X-224560D02*
X-225873D01*
Y-30683D01*
X-224560D01*
G01X-225085Y-31634D02*
X-225873D01*
G01X-223346Y-32389D02*
X-223084Y-32553D01*
X-222789Y-32651D01*
X-222526D01*
X-222264Y-32553D01*
X-222067Y-32389D01*
X-221969Y-32159D01*
X-222034Y-31930D01*
X-222198Y-31733D01*
X-222493Y-31601D01*
X-222887Y-31536D01*
X-223117Y-31404D01*
X-223215Y-31175D01*
X-223150Y-30945D01*
X-222985Y-30781D01*
X-222756Y-30683D01*
X-222526D01*
X-222296Y-30748D01*
X-222100Y-30912D01*
G01X-220492Y-30683D02*
X-219705D01*
G01X-220098D02*
Y-32651D01*
G01X-220492D02*
X-219705D01*
G01X-217343Y-31667D02*
X-216686D01*
Y-32257D01*
X-216883Y-32454D01*
X-217113Y-32585D01*
X-217441Y-32651D01*
X-217769Y-32585D01*
X-217999Y-32454D01*
X-218196Y-32257D01*
X-218327Y-32028D01*
X-218393Y-31765D01*
Y-31536D01*
X-218327Y-31339D01*
X-218196Y-31109D01*
X-217999Y-30912D01*
X-217802Y-30781D01*
X-217539Y-30683D01*
X-217310D01*
X-217047Y-30748D01*
X-216850Y-30880D01*
G01X-215735Y-32651D02*
Y-30683D01*
X-214226Y-32651D01*
Y-30683D01*
G01X-209141Y-30847D02*
X-209337Y-30748D01*
X-209567Y-30683D01*
X-209830D01*
X-210125Y-30781D01*
X-210354Y-30945D01*
X-210519Y-31142D01*
X-210650Y-31470D01*
X-210682Y-31765D01*
X-210617Y-32061D01*
X-210519Y-32257D01*
X-210322Y-32454D01*
X-210092Y-32585D01*
X-209862Y-32651D01*
X-209633D01*
X-209403Y-32585D01*
X-209206Y-32487D01*
X-209042Y-32356D01*
G01X-207959Y-32651D02*
Y-30683D01*
X-207139D01*
X-206877Y-30781D01*
X-206713Y-30912D01*
X-206647Y-31175D01*
X-206713Y-31437D01*
X-206909Y-31601D01*
X-207139Y-31700D01*
X-207959D01*
G01X-207139D02*
X-206647Y-32651D01*
G01X-204744D02*
X-205007Y-32619D01*
X-205236Y-32487D01*
X-205433Y-32290D01*
X-205564Y-32061D01*
X-205630Y-31798D01*
Y-31536D01*
X-205564Y-31273D01*
X-205433Y-31044D01*
X-205236Y-30847D01*
X-205007Y-30715D01*
X-204744Y-30683D01*
X-204481Y-30715D01*
X-204252Y-30847D01*
X-204055Y-31044D01*
X-203924Y-31273D01*
X-203858Y-31536D01*
Y-31798D01*
X-203924Y-32061D01*
X-204055Y-32290D01*
X-204252Y-32487D01*
X-204481Y-32619D01*
X-204744Y-32651D01*
G01X-202874Y-32389D02*
X-202611Y-32553D01*
X-202316Y-32651D01*
X-202054D01*
X-201791Y-32553D01*
X-201594Y-32389D01*
X-201496Y-32159D01*
X-201562Y-31930D01*
X-201726Y-31733D01*
X-202021Y-31601D01*
X-202415Y-31536D01*
X-202644Y-31404D01*
X-202743Y-31175D01*
X-202677Y-30945D01*
X-202513Y-30781D01*
X-202283Y-30683D01*
X-202054D01*
X-201824Y-30748D01*
X-201627Y-30912D01*
G01X-200315Y-32389D02*
X-200052Y-32553D01*
X-199757Y-32651D01*
X-199495D01*
X-199232Y-32553D01*
X-199035Y-32389D01*
X-198937Y-32159D01*
X-199003Y-31930D01*
X-199167Y-31733D01*
X-199462Y-31601D01*
X-199856Y-31536D01*
X-200085Y-31404D01*
X-200184Y-31175D01*
X-200118Y-30945D01*
X-199954Y-30781D01*
X-199724Y-30683D01*
X-199495D01*
X-199265Y-30748D01*
X-199068Y-30912D01*
G01X-195197Y-32389D02*
X-194934Y-32553D01*
X-194639Y-32651D01*
X-194377D01*
X-194114Y-32553D01*
X-193917Y-32389D01*
X-193819Y-32159D01*
X-193885Y-31930D01*
X-194048Y-31733D01*
X-194344Y-31601D01*
X-194737Y-31536D01*
X-194967Y-31404D01*
X-195066Y-31175D01*
X-195000Y-30945D01*
X-194836Y-30781D01*
X-194606Y-30683D01*
X-194377D01*
X-194147Y-30748D01*
X-193950Y-30912D01*
G01X-191293Y-32651D02*
X-192605D01*
Y-30683D01*
X-191293D01*
G01X-191818Y-31634D02*
X-192605D01*
G01X-188668Y-30847D02*
X-188865Y-30748D01*
X-189094Y-30683D01*
X-189357D01*
X-189652Y-30781D01*
X-189882Y-30945D01*
X-190046Y-31142D01*
X-190177Y-31470D01*
X-190210Y-31765D01*
X-190144Y-32061D01*
X-190046Y-32257D01*
X-189849Y-32454D01*
X-189619Y-32585D01*
X-189390Y-32651D01*
X-189160D01*
X-188930Y-32585D01*
X-188733Y-32487D01*
X-188570Y-32356D01*
G01X-186831Y-30683D02*
Y-32651D01*
G01X-187585Y-30683D02*
X-186076D01*
G01X-184665D02*
X-183878D01*
G01X-184272D02*
Y-32651D01*
G01X-184665D02*
X-183878D01*
G01X-181713D02*
X-181975Y-32619D01*
X-182205Y-32487D01*
X-182402Y-32290D01*
X-182533Y-32061D01*
X-182598Y-31798D01*
Y-31536D01*
X-182533Y-31273D01*
X-182402Y-31044D01*
X-182205Y-30847D01*
X-181975Y-30715D01*
X-181713Y-30683D01*
X-181450Y-30715D01*
X-181220Y-30847D01*
X-181024Y-31044D01*
X-180893Y-31273D01*
X-180827Y-31536D01*
Y-31798D01*
X-180893Y-32061D01*
X-181024Y-32290D01*
X-181220Y-32487D01*
X-181450Y-32619D01*
X-181713Y-32651D01*
G01X-179908D02*
Y-30683D01*
X-178399Y-32651D01*
Y-30683D01*
G01X-173314Y-30847D02*
X-173511Y-30748D01*
X-173740Y-30683D01*
X-174003D01*
X-174298Y-30781D01*
X-174528Y-30945D01*
X-174692Y-31142D01*
X-174823Y-31470D01*
X-174856Y-31765D01*
X-174790Y-32061D01*
X-174692Y-32257D01*
X-174495Y-32454D01*
X-174265Y-32585D01*
X-174035Y-32651D01*
X-173806D01*
X-173576Y-32585D01*
X-173379Y-32487D01*
X-173215Y-32356D01*
G01X-172165Y-32651D02*
Y-30683D01*
G01X-170787D02*
Y-32651D01*
G01Y-31667D02*
X-172165D01*
G01X-169737Y-32651D02*
X-168917Y-30683D01*
X-168097Y-32651D01*
G01X-168393Y-31962D02*
X-169442D01*
G01X-167015Y-32651D02*
Y-30683D01*
X-166194D01*
X-165932Y-30781D01*
X-165768Y-30912D01*
X-165702Y-31175D01*
X-165768Y-31437D01*
X-165965Y-31601D01*
X-166194Y-31700D01*
X-167015D01*
G01X-166194D02*
X-165702Y-32651D01*
G01X-163799Y-30683D02*
Y-32651D01*
G01X-164554Y-30683D02*
X-163044D01*
G01X-222657Y-34620D02*
Y-36588D01*
G01X-223412Y-34620D02*
X-221903D01*
G01X-220098Y-36588D02*
X-220361Y-36556D01*
X-220591Y-36424D01*
X-220787Y-36227D01*
X-220919Y-35998D01*
X-220984Y-35735D01*
Y-35473D01*
X-220919Y-35210D01*
X-220787Y-34981D01*
X-220591Y-34784D01*
X-220361Y-34652D01*
X-220098Y-34620D01*
X-219836Y-34652D01*
X-219606Y-34784D01*
X-219409Y-34981D01*
X-219278Y-35210D01*
X-219213Y-35473D01*
Y-35735D01*
X-219278Y-35998D01*
X-219409Y-36227D01*
X-219606Y-36424D01*
X-219836Y-36556D01*
X-220098Y-36588D01*
G01X-217539Y-34620D02*
Y-36588D01*
G01X-218294Y-34620D02*
X-216785D01*
G01X-215800Y-36588D02*
X-214980Y-34620D01*
X-214160Y-36588D01*
G01X-214456Y-35899D02*
X-215505D01*
G01X-213078Y-34620D02*
Y-36588D01*
X-211765D01*
G01X-207303Y-34620D02*
Y-36588D01*
G01X-208058Y-34620D02*
X-206548D01*
G01X-205433Y-36588D02*
Y-34620D01*
G01X-204055D02*
Y-36588D01*
G01Y-35604D02*
X-205433D01*
G01X-202579Y-34620D02*
X-201791D01*
G01X-202185D02*
Y-36588D01*
G01X-202579D02*
X-201791D01*
G01X-198904Y-34784D02*
X-199101Y-34685D01*
X-199331Y-34620D01*
X-199593D01*
X-199889Y-34718D01*
X-200118Y-34882D01*
X-200282Y-35079D01*
X-200413Y-35407D01*
X-200446Y-35702D01*
X-200381Y-35998D01*
X-200282Y-36194D01*
X-200085Y-36391D01*
X-199856Y-36522D01*
X-199626Y-36588D01*
X-199396D01*
X-199167Y-36522D01*
X-198970Y-36424D01*
X-198806Y-36293D01*
G01X-197789Y-36588D02*
Y-34620D01*
G01X-196542D02*
X-197789Y-35833D01*
G01X-196345Y-36588D02*
X-197231Y-35276D01*
G01X-195263Y-36588D02*
Y-34620D01*
X-193753Y-36588D01*
Y-34620D01*
G01X-191293Y-36588D02*
X-192605D01*
Y-34620D01*
X-191293D01*
G01X-191818Y-35571D02*
X-192605D01*
G01X-190079Y-36326D02*
X-189816Y-36490D01*
X-189521Y-36588D01*
X-189259D01*
X-188996Y-36490D01*
X-188799Y-36326D01*
X-188701Y-36096D01*
X-188767Y-35867D01*
X-188930Y-35670D01*
X-189226Y-35538D01*
X-189619Y-35473D01*
X-189849Y-35341D01*
X-189948Y-35112D01*
X-189882Y-34882D01*
X-189718Y-34718D01*
X-189488Y-34620D01*
X-189259D01*
X-189029Y-34685D01*
X-188832Y-34849D01*
G01X-187520Y-36326D02*
X-187257Y-36490D01*
X-186962Y-36588D01*
X-186700D01*
X-186437Y-36490D01*
X-186240Y-36326D01*
X-186142Y-36096D01*
X-186207Y-35867D01*
X-186371Y-35670D01*
X-186667Y-35538D01*
X-187060Y-35473D01*
X-187290Y-35341D01*
X-187389Y-35112D01*
X-187323Y-34882D01*
X-187159Y-34718D01*
X-186929Y-34620D01*
X-186700D01*
X-186470Y-34685D01*
X-186273Y-34849D01*
G01X-181713Y-36588D02*
Y-34620D01*
X-182106Y-35013D01*
G01Y-36588D02*
X-181319D01*
G01X-179154Y-36654D02*
X-179219Y-36621D01*
Y-36556D01*
X-179154Y-36522D01*
X-179088Y-36556D01*
Y-36621D01*
X-179154Y-36654D01*
G01X-177218Y-35768D02*
X-176988Y-35538D01*
X-176791Y-35407D01*
X-176529Y-35341D01*
X-176299Y-35407D01*
X-176135Y-35538D01*
X-176004Y-35735D01*
X-175971Y-35965D01*
X-176004Y-36162D01*
X-176135Y-36359D01*
X-176332Y-36522D01*
X-176562Y-36588D01*
X-176824Y-36522D01*
X-177054Y-36326D01*
X-177185Y-36030D01*
X-177218Y-35702D01*
X-177152Y-35276D01*
X-177054Y-35046D01*
X-176890Y-34817D01*
X-176660Y-34652D01*
X-176430Y-34620D01*
X-176201Y-34685D01*
X-176037Y-34849D01*
G01X-172330Y-36588D02*
Y-34620D01*
X-171476Y-36260D01*
X-170623Y-34620D01*
Y-36588D01*
G01X-169770D02*
Y-34620D01*
X-168917Y-36260D01*
X-168064Y-34620D01*
Y-36588D01*
G01X-198287Y179647D02*
X-200256D01*
X-199862Y179254D01*
G01X-198287D02*
Y180041D01*
G01X-198944Y181780D02*
Y182633D01*
G01X-199928Y184142D02*
X-200125Y184339D01*
X-200223Y184569D01*
X-200256Y184831D01*
X-200190Y185159D01*
X-200026Y185389D01*
X-199830Y185454D01*
X-199633Y185422D01*
X-199469Y185290D01*
X-199141Y184634D01*
X-198911Y184339D01*
X-198583Y184142D01*
X-198287Y184076D01*
Y185454D01*
G01X-162900Y-23269D02*
Y-25237D01*
X-161588D01*
G01X-160308Y-23596D02*
X-160111Y-23400D01*
X-159882Y-23301D01*
X-159619Y-23269D01*
X-159291Y-23334D01*
X-159062Y-23498D01*
X-158996Y-23695D01*
X-159029Y-23892D01*
X-159160Y-24056D01*
X-159816Y-24384D01*
X-160111Y-24614D01*
X-160308Y-24942D01*
X-160374Y-25237D01*
X-158996D01*
G01X-157126Y-25303D02*
X-157192Y-25270D01*
Y-25204D01*
X-157126Y-25171D01*
X-157060Y-25204D01*
Y-25270D01*
X-157126Y-25303D01*
G01Y-24417D02*
X-157192Y-24384D01*
Y-24319D01*
X-157126Y-24285D01*
X-157060Y-24319D01*
Y-24384D01*
X-157126Y-24417D01*
G01X-151745Y-24187D02*
X-151614Y-24089D01*
X-151516Y-23925D01*
X-151450Y-23695D01*
X-151516Y-23498D01*
X-151647Y-23367D01*
X-151877Y-23269D01*
X-152763D01*
Y-25237D01*
X-151680D01*
X-151450Y-25106D01*
X-151319Y-24909D01*
X-151253Y-24679D01*
X-151319Y-24450D01*
X-151516Y-24253D01*
X-151745Y-24187D01*
X-152763D01*
G01X-149449Y-25237D02*
X-149711Y-25204D01*
X-149941Y-25073D01*
X-150138Y-24876D01*
X-150269Y-24646D01*
X-150335Y-24384D01*
Y-24122D01*
X-150269Y-23859D01*
X-150138Y-23630D01*
X-149941Y-23433D01*
X-149711Y-23301D01*
X-149449Y-23269D01*
X-149186Y-23301D01*
X-148957Y-23433D01*
X-148760Y-23630D01*
X-148629Y-23859D01*
X-148563Y-24122D01*
Y-24384D01*
X-148629Y-24646D01*
X-148760Y-24876D01*
X-148957Y-25073D01*
X-149186Y-25204D01*
X-149449Y-25237D01*
G01X-146890Y-23269D02*
Y-25237D01*
G01X-147644Y-23269D02*
X-146135D01*
G01X-144331D02*
Y-25237D01*
G01X-145085Y-23269D02*
X-143576D01*
G01X-141772Y-25237D02*
X-142034Y-25204D01*
X-142264Y-25073D01*
X-142461Y-24876D01*
X-142592Y-24646D01*
X-142657Y-24384D01*
Y-24122D01*
X-142592Y-23859D01*
X-142461Y-23630D01*
X-142264Y-23433D01*
X-142034Y-23301D01*
X-141772Y-23269D01*
X-141509Y-23301D01*
X-141280Y-23433D01*
X-141083Y-23630D01*
X-140952Y-23859D01*
X-140886Y-24122D01*
Y-24384D01*
X-140952Y-24646D01*
X-141083Y-24876D01*
X-141280Y-25073D01*
X-141509Y-25204D01*
X-141772Y-25237D01*
G01X-140066D02*
Y-23269D01*
X-139213Y-24909D01*
X-138359Y-23269D01*
Y-25237D01*
G01X-133373Y-23433D02*
X-133570Y-23334D01*
X-133799Y-23269D01*
X-134062D01*
X-134357Y-23367D01*
X-134587Y-23531D01*
X-134751Y-23728D01*
X-134882Y-24056D01*
X-134915Y-24351D01*
X-134849Y-24646D01*
X-134751Y-24843D01*
X-134554Y-25040D01*
X-134324Y-25171D01*
X-134094Y-25237D01*
X-133865D01*
X-133635Y-25171D01*
X-133438Y-25073D01*
X-133274Y-24942D01*
G01X-131535Y-25237D02*
X-131798Y-25204D01*
X-132028Y-25073D01*
X-132224Y-24876D01*
X-132356Y-24646D01*
X-132421Y-24384D01*
Y-24122D01*
X-132356Y-23859D01*
X-132224Y-23630D01*
X-132028Y-23433D01*
X-131798Y-23301D01*
X-131535Y-23269D01*
X-131273Y-23301D01*
X-131043Y-23433D01*
X-130846Y-23630D01*
X-130715Y-23859D01*
X-130650Y-24122D01*
Y-24384D01*
X-130715Y-24646D01*
X-130846Y-24876D01*
X-131043Y-25073D01*
X-131273Y-25204D01*
X-131535Y-25237D01*
G01X-129731D02*
Y-23269D01*
X-128222Y-25237D01*
Y-23269D01*
G01X-127139Y-25237D02*
Y-23269D01*
X-126483D01*
X-126220Y-23367D01*
X-126024Y-23498D01*
X-125859Y-23695D01*
X-125728Y-23925D01*
X-125696Y-24253D01*
X-125728Y-24581D01*
X-125859Y-24811D01*
X-126024Y-25007D01*
X-126220Y-25139D01*
X-126483Y-25237D01*
X-127139D01*
G01X-124580Y-23269D02*
Y-24679D01*
X-124449Y-24974D01*
X-124186Y-25171D01*
X-123858Y-25237D01*
X-123530Y-25171D01*
X-123268Y-24974D01*
X-123137Y-24679D01*
Y-23269D01*
G01X-120578Y-23433D02*
X-120774Y-23334D01*
X-121004Y-23269D01*
X-121267D01*
X-121562Y-23367D01*
X-121791Y-23531D01*
X-121956Y-23728D01*
X-122087Y-24056D01*
X-122119Y-24351D01*
X-122054Y-24646D01*
X-121956Y-24843D01*
X-121759Y-25040D01*
X-121529Y-25171D01*
X-121299Y-25237D01*
X-121070D01*
X-120840Y-25171D01*
X-120643Y-25073D01*
X-120479Y-24942D01*
G01X-118740Y-23269D02*
Y-25237D01*
G01X-119495Y-23269D02*
X-117985D01*
G01X-116181Y-25237D02*
X-116444Y-25204D01*
X-116673Y-25073D01*
X-116870Y-24876D01*
X-117001Y-24646D01*
X-117067Y-24384D01*
Y-24122D01*
X-117001Y-23859D01*
X-116870Y-23630D01*
X-116673Y-23433D01*
X-116444Y-23301D01*
X-116181Y-23269D01*
X-115919Y-23301D01*
X-115689Y-23433D01*
X-115492Y-23630D01*
X-115361Y-23859D01*
X-115295Y-24122D01*
Y-24384D01*
X-115361Y-24646D01*
X-115492Y-24876D01*
X-115689Y-25073D01*
X-115919Y-25204D01*
X-116181Y-25237D01*
G01X-114278D02*
Y-23269D01*
X-113458D01*
X-113196Y-23367D01*
X-113031Y-23498D01*
X-112966Y-23761D01*
X-113031Y-24023D01*
X-113228Y-24187D01*
X-113458Y-24285D01*
X-114278D01*
G01X-113458D02*
X-112966Y-25237D01*
G01X-108930Y-24581D02*
X-108078D01*
G01X-102664Y-23433D02*
X-102861Y-23334D01*
X-103091Y-23269D01*
X-103353D01*
X-103648Y-23367D01*
X-103878Y-23531D01*
X-104042Y-23728D01*
X-104173Y-24056D01*
X-104206Y-24351D01*
X-104141Y-24646D01*
X-104042Y-24843D01*
X-103845Y-25040D01*
X-103615Y-25171D01*
X-103386Y-25237D01*
X-103156D01*
X-102926Y-25171D01*
X-102730Y-25073D01*
X-102566Y-24942D01*
G01X-100827Y-25237D02*
X-101089Y-25204D01*
X-101319Y-25073D01*
X-101516Y-24876D01*
X-101647Y-24646D01*
X-101713Y-24384D01*
Y-24122D01*
X-101647Y-23859D01*
X-101516Y-23630D01*
X-101319Y-23433D01*
X-101089Y-23301D01*
X-100827Y-23269D01*
X-100564Y-23301D01*
X-100335Y-23433D01*
X-100138Y-23630D01*
X-100007Y-23859D01*
X-99941Y-24122D01*
Y-24384D01*
X-100007Y-24646D01*
X-100138Y-24876D01*
X-100335Y-25073D01*
X-100564Y-25204D01*
X-100827Y-25237D01*
G01X-98924D02*
Y-23269D01*
X-98137D01*
X-97874Y-23367D01*
X-97677Y-23596D01*
X-97611Y-23859D01*
X-97677Y-24122D01*
X-97841Y-24319D01*
X-98137Y-24417D01*
X-98924D01*
G01X-96365Y-25237D02*
Y-23269D01*
X-95578D01*
X-95315Y-23367D01*
X-95118Y-23596D01*
X-95052Y-23859D01*
X-95118Y-24122D01*
X-95282Y-24319D01*
X-95578Y-24417D01*
X-96365D01*
G01X-92493Y-25237D02*
X-93806D01*
Y-23269D01*
X-92493D01*
G01X-93019Y-24220D02*
X-93806D01*
G01X-91247Y-25237D02*
Y-23269D01*
X-90426D01*
X-90164Y-23367D01*
X-90000Y-23498D01*
X-89934Y-23761D01*
X-90000Y-24023D01*
X-90197Y-24187D01*
X-90426Y-24285D01*
X-91247D01*
G01X-90426D02*
X-89934Y-25237D01*
G01X-85472Y-23269D02*
X-85735Y-23334D01*
X-85932Y-23498D01*
X-86063Y-23695D01*
X-86161Y-23957D01*
X-86194Y-24253D01*
X-86161Y-24548D01*
X-86063Y-24811D01*
X-85932Y-25007D01*
X-85735Y-25171D01*
X-85472Y-25237D01*
X-85210Y-25171D01*
X-85013Y-25007D01*
X-84882Y-24811D01*
X-84783Y-24548D01*
X-84751Y-24253D01*
X-84783Y-23957D01*
X-84882Y-23695D01*
X-85013Y-23498D01*
X-85210Y-23334D01*
X-85472Y-23269D01*
G01X-82913Y-25303D02*
X-82979Y-25270D01*
Y-25204D01*
X-82913Y-25171D01*
X-82848Y-25204D01*
Y-25270D01*
X-82913Y-25303D01*
G01X-80354Y-23269D02*
X-80617Y-23334D01*
X-80814Y-23498D01*
X-80945Y-23695D01*
X-81043Y-23957D01*
X-81076Y-24253D01*
X-81043Y-24548D01*
X-80945Y-24811D01*
X-80814Y-25007D01*
X-80617Y-25171D01*
X-80354Y-25237D01*
X-80092Y-25171D01*
X-79895Y-25007D01*
X-79764Y-24811D01*
X-79665Y-24548D01*
X-79633Y-24253D01*
X-79665Y-23957D01*
X-79764Y-23695D01*
X-79895Y-23498D01*
X-80092Y-23334D01*
X-80354Y-23269D01*
G01X-77795Y-25237D02*
Y-23269D01*
X-78189Y-23662D01*
G01Y-25237D02*
X-77402D01*
G01X-75236D02*
X-75007Y-25204D01*
X-74744Y-25106D01*
X-74580Y-24942D01*
X-74515Y-24712D01*
X-74580Y-24482D01*
X-74777Y-24285D01*
X-75072Y-24187D01*
X-75400D01*
X-75597Y-24122D01*
X-75761Y-23957D01*
X-75827Y-23728D01*
X-75728Y-23498D01*
X-75499Y-23334D01*
X-75236Y-23269D01*
X-74974Y-23334D01*
X-74744Y-23498D01*
X-74646Y-23728D01*
X-74711Y-23957D01*
X-74875Y-24122D01*
X-75072Y-24187D01*
X-75400D01*
X-75696Y-24285D01*
X-75893Y-24482D01*
X-75958Y-24712D01*
X-75893Y-24942D01*
X-75728Y-25106D01*
X-75466Y-25204D01*
X-75236Y-25237D01*
G01X-70971D02*
Y-23269D01*
X-70118Y-24909D01*
X-69265Y-23269D01*
Y-25237D01*
G01X-68412D02*
Y-23269D01*
X-67559Y-24909D01*
X-66706Y-23269D01*
Y-25237D01*
G01X-157848Y-27927D02*
X-156404Y-26483D01*
G01X-157126Y-26221D02*
Y-28189D01*
G01X-156404Y-27927D02*
X-157848Y-26483D01*
G01X-158110Y-27205D02*
X-156142D01*
G01X-150138Y-27599D02*
X-149875Y-27763D01*
X-149580Y-27861D01*
X-149318D01*
X-149055Y-27763D01*
X-148858Y-27599D01*
X-148760Y-27369D01*
X-148826Y-27140D01*
X-148989Y-26943D01*
X-149285Y-26811D01*
X-149678Y-26746D01*
X-149908Y-26615D01*
X-150007Y-26385D01*
X-149941Y-26156D01*
X-149777Y-25991D01*
X-149547Y-25893D01*
X-149318D01*
X-149088Y-25959D01*
X-148891Y-26122D01*
G01X-147611Y-25893D02*
Y-27304D01*
X-147480Y-27599D01*
X-147218Y-27796D01*
X-146890Y-27861D01*
X-146562Y-27796D01*
X-146299Y-27599D01*
X-146168Y-27304D01*
Y-25893D01*
G01X-144987Y-27861D02*
Y-25893D01*
X-144167D01*
X-143904Y-25991D01*
X-143740Y-26122D01*
X-143674Y-26385D01*
X-143740Y-26648D01*
X-143937Y-26811D01*
X-144167Y-26910D01*
X-144987D01*
G01X-144167D02*
X-143674Y-27861D01*
G01X-142395D02*
Y-25893D01*
X-141148D01*
G01X-141607Y-26844D02*
X-142395D01*
G01X-140033Y-27861D02*
X-139213Y-25893D01*
X-138393Y-27861D01*
G01X-138688Y-27172D02*
X-139737D01*
G01X-135932Y-26057D02*
X-136129Y-25959D01*
X-136358Y-25893D01*
X-136621D01*
X-136916Y-25991D01*
X-137146Y-26156D01*
X-137310Y-26352D01*
X-137441Y-26680D01*
X-137474Y-26976D01*
X-137408Y-27271D01*
X-137310Y-27468D01*
X-137113Y-27665D01*
X-136883Y-27796D01*
X-136654Y-27861D01*
X-136424D01*
X-136194Y-27796D01*
X-135997Y-27697D01*
X-135833Y-27566D01*
G01X-133438Y-27861D02*
X-134751D01*
Y-25893D01*
X-133438D01*
G01X-133963Y-26844D02*
X-134751D01*
G01X-129403Y-27205D02*
X-128550D01*
G01X-124678Y-27861D02*
X-123858Y-25893D01*
X-123038Y-27861D01*
G01X-123333Y-27172D02*
X-124383D01*
G01X-121693Y-25893D02*
X-120906D01*
G01X-121299D02*
Y-27861D01*
G01X-121693D02*
X-120906D01*
G01X-119396D02*
Y-25893D01*
X-118576D01*
X-118314Y-25991D01*
X-118150Y-26122D01*
X-118084Y-26385D01*
X-118150Y-26648D01*
X-118346Y-26811D01*
X-118576Y-26910D01*
X-119396D01*
G01X-118576D02*
X-118084Y-27861D01*
G01X-113622Y-25893D02*
X-113885Y-25959D01*
X-114081Y-26122D01*
X-114213Y-26319D01*
X-114311Y-26582D01*
X-114344Y-26877D01*
X-114311Y-27172D01*
X-114213Y-27435D01*
X-114081Y-27632D01*
X-113885Y-27796D01*
X-113622Y-27861D01*
X-113359Y-27796D01*
X-113163Y-27632D01*
X-113031Y-27435D01*
X-112933Y-27172D01*
X-112900Y-26877D01*
X-112933Y-26582D01*
X-113031Y-26319D01*
X-113163Y-26122D01*
X-113359Y-25959D01*
X-113622Y-25893D01*
G01X-109357Y-27861D02*
Y-25893D01*
X-108504Y-27533D01*
X-107651Y-25893D01*
Y-27861D01*
G01X-106798D02*
Y-25893D01*
X-105945Y-27533D01*
X-105092Y-25893D01*
Y-27861D01*
G01X-157848Y75841D02*
X-156404Y77285D01*
G01X-157126Y77548D02*
Y75579D01*
G01X-156404Y75841D02*
X-157848Y77285D01*
G01X-158110Y76563D02*
X-156142D01*
G01X-150170Y75907D02*
Y77876D01*
X-149515D01*
X-149252Y77777D01*
X-149055Y77646D01*
X-148891Y77449D01*
X-148760Y77219D01*
X-148727Y76891D01*
X-148760Y76563D01*
X-148891Y76333D01*
X-149055Y76137D01*
X-149252Y76006D01*
X-149515Y75907D01*
X-150170D01*
G01X-147283Y77876D02*
X-146496D01*
G01X-146890D02*
Y75907D01*
G01X-147283D02*
X-146496D01*
G01X-143674D02*
X-144987D01*
Y77876D01*
X-143674D01*
G01X-144200Y76924D02*
X-144987D01*
G01X-142428Y77876D02*
Y75907D01*
X-141115D01*
G01X-138556D02*
X-139869D01*
Y77876D01*
X-138556D01*
G01X-139081Y76924D02*
X-139869D01*
G01X-135932Y77711D02*
X-136129Y77810D01*
X-136358Y77876D01*
X-136621D01*
X-136916Y77777D01*
X-137146Y77613D01*
X-137310Y77416D01*
X-137441Y77088D01*
X-137474Y76793D01*
X-137408Y76498D01*
X-137310Y76301D01*
X-137113Y76104D01*
X-136883Y75973D01*
X-136654Y75907D01*
X-136424D01*
X-136194Y75973D01*
X-135997Y76071D01*
X-135833Y76202D01*
G01X-134094Y77876D02*
Y75907D01*
G01X-134849Y77876D02*
X-133340D01*
G01X-132192Y75907D02*
Y77876D01*
X-131371D01*
X-131109Y77777D01*
X-130945Y77646D01*
X-130879Y77383D01*
X-130945Y77121D01*
X-131142Y76957D01*
X-131371Y76859D01*
X-132192D01*
G01X-131371D02*
X-130879Y75907D01*
G01X-129370Y77876D02*
X-128583D01*
G01X-128976D02*
Y75907D01*
G01X-129370D02*
X-128583D01*
G01X-125696Y77711D02*
X-125893Y77810D01*
X-126122Y77876D01*
X-126385D01*
X-126680Y77777D01*
X-126909Y77613D01*
X-127074Y77416D01*
X-127205Y77088D01*
X-127237Y76793D01*
X-127172Y76498D01*
X-127074Y76301D01*
X-126877Y76104D01*
X-126647Y75973D01*
X-126417Y75907D01*
X-126188D01*
X-125958Y75973D01*
X-125761Y76071D01*
X-125597Y76202D01*
G01X-121726Y76563D02*
X-120873D01*
G01X-116804Y75907D02*
Y77876D01*
X-115558D01*
G01X-116017Y76924D02*
X-116804D01*
G01X-114278Y75907D02*
Y77876D01*
X-113458D01*
X-113196Y77777D01*
X-113031Y77646D01*
X-112966Y77383D01*
X-113031Y77121D01*
X-113228Y76957D01*
X-113458Y76859D01*
X-114278D01*
G01X-113458D02*
X-112966Y75907D01*
G01X-111489Y76563D02*
X-110637D01*
G01X-108110Y75907D02*
Y77876D01*
X-109324Y76465D01*
X-107684D01*
G01X-103386Y75907D02*
Y77876D01*
X-103780Y77482D01*
G01Y75907D02*
X-102992D01*
G01X-100827Y75841D02*
X-100893Y75874D01*
Y75940D01*
X-100827Y75973D01*
X-100761Y75940D01*
Y75874D01*
X-100827Y75841D01*
G01X-98989Y76202D02*
X-98793Y76038D01*
X-98563Y75940D01*
X-98268Y75907D01*
X-97972Y75973D01*
X-97743Y76104D01*
X-97579Y76333D01*
X-97546Y76596D01*
X-97611Y76859D01*
X-97776Y77022D01*
X-98005Y77154D01*
X-98235Y77187D01*
X-98465Y77154D01*
X-98760Y77022D01*
X-98661Y77876D01*
X-97776D01*
G01X-96332Y76727D02*
X-96102Y76957D01*
X-95906Y77088D01*
X-95643Y77154D01*
X-95413Y77088D01*
X-95249Y76957D01*
X-95118Y76760D01*
X-95085Y76530D01*
X-95118Y76333D01*
X-95249Y76137D01*
X-95446Y75973D01*
X-95676Y75907D01*
X-95938Y75973D01*
X-96168Y76170D01*
X-96299Y76465D01*
X-96332Y76793D01*
X-96267Y77219D01*
X-96168Y77449D01*
X-96004Y77679D01*
X-95774Y77843D01*
X-95544Y77876D01*
X-95315Y77810D01*
X-95151Y77646D01*
G01X-92756Y75907D02*
Y77876D01*
X-93970Y76465D01*
X-92330D01*
G01X-88885Y75907D02*
Y77876D01*
X-88031Y76235D01*
X-87178Y77876D01*
Y75907D01*
G01X-86326D02*
Y77876D01*
X-85472Y76235D01*
X-84619Y77876D01*
Y75907D01*
G01X-157848Y177285D02*
X-156404Y178728D01*
G01X-157126Y178991D02*
Y177022D01*
G01X-156404Y177285D02*
X-157848Y178728D01*
G01X-158110Y178007D02*
X-156142D01*
G01X-150138Y177613D02*
X-149875Y177449D01*
X-149580Y177350D01*
X-149318D01*
X-149055Y177449D01*
X-148858Y177613D01*
X-148760Y177843D01*
X-148826Y178072D01*
X-148989Y178269D01*
X-149285Y178400D01*
X-149678Y178466D01*
X-149908Y178597D01*
X-150007Y178827D01*
X-149941Y179056D01*
X-149777Y179220D01*
X-149547Y179319D01*
X-149318D01*
X-149088Y179253D01*
X-148891Y179089D01*
G01X-147611Y179319D02*
Y177908D01*
X-147480Y177613D01*
X-147218Y177416D01*
X-146890Y177350D01*
X-146562Y177416D01*
X-146299Y177613D01*
X-146168Y177908D01*
Y179319D01*
G01X-144987Y177350D02*
Y179319D01*
X-144167D01*
X-143904Y179220D01*
X-143740Y179089D01*
X-143674Y178827D01*
X-143740Y178564D01*
X-143937Y178400D01*
X-144167Y178302D01*
X-144987D01*
G01X-144167D02*
X-143674Y177350D01*
G01X-142395D02*
Y179319D01*
X-141148D01*
G01X-141607Y178367D02*
X-142395D01*
G01X-140033Y177350D02*
X-139213Y179319D01*
X-138393Y177350D01*
G01X-138688Y178039D02*
X-139737D01*
G01X-135932Y179155D02*
X-136129Y179253D01*
X-136358Y179319D01*
X-136621D01*
X-136916Y179220D01*
X-137146Y179056D01*
X-137310Y178859D01*
X-137441Y178531D01*
X-137474Y178236D01*
X-137408Y177941D01*
X-137310Y177744D01*
X-137113Y177547D01*
X-136883Y177416D01*
X-136654Y177350D01*
X-136424D01*
X-136194Y177416D01*
X-135997Y177515D01*
X-135833Y177646D01*
G01X-133438Y177350D02*
X-134751D01*
Y179319D01*
X-133438D01*
G01X-133963Y178367D02*
X-134751D01*
G01X-129403Y178007D02*
X-128550D01*
G01X-124678Y177350D02*
X-123858Y179319D01*
X-123038Y177350D01*
G01X-123333Y178039D02*
X-124383D01*
G01X-121693Y179319D02*
X-120906D01*
G01X-121299D02*
Y177350D01*
G01X-121693D02*
X-120906D01*
G01X-119396D02*
Y179319D01*
X-118576D01*
X-118314Y179220D01*
X-118150Y179089D01*
X-118084Y178827D01*
X-118150Y178564D01*
X-118346Y178400D01*
X-118576Y178302D01*
X-119396D01*
G01X-118576D02*
X-118084Y177350D01*
G01X-113622Y179319D02*
X-113885Y179253D01*
X-114081Y179089D01*
X-114213Y178893D01*
X-114311Y178630D01*
X-114344Y178335D01*
X-114311Y178039D01*
X-114213Y177777D01*
X-114081Y177580D01*
X-113885Y177416D01*
X-113622Y177350D01*
X-113359Y177416D01*
X-113163Y177580D01*
X-113031Y177777D01*
X-112933Y178039D01*
X-112900Y178335D01*
X-112933Y178630D01*
X-113031Y178893D01*
X-113163Y179089D01*
X-113359Y179253D01*
X-113622Y179319D01*
G01X-109357Y177350D02*
Y179319D01*
X-108504Y177678D01*
X-107651Y179319D01*
Y177350D01*
G01X-106798D02*
Y179319D01*
X-105945Y177678D01*
X-105092Y179319D01*
Y177350D01*
G01X-162900Y176039D02*
Y174070D01*
X-161588D01*
G01X-159685D02*
Y176039D01*
X-160079Y175645D01*
G01Y174070D02*
X-159291D01*
G01X-157126Y174004D02*
X-157192Y174037D01*
Y174103D01*
X-157126Y174136D01*
X-157060Y174103D01*
Y174037D01*
X-157126Y174004D01*
G01Y174890D02*
X-157192Y174923D01*
Y174989D01*
X-157126Y175022D01*
X-157060Y174989D01*
Y174923D01*
X-157126Y174890D01*
G01X-152008Y176039D02*
Y174070D01*
G01X-152763Y176039D02*
X-151253D01*
G01X-149449Y174070D02*
X-149711Y174103D01*
X-149941Y174234D01*
X-150138Y174431D01*
X-150269Y174661D01*
X-150335Y174923D01*
Y175185D01*
X-150269Y175448D01*
X-150138Y175678D01*
X-149941Y175874D01*
X-149711Y176006D01*
X-149449Y176039D01*
X-149186Y176006D01*
X-148957Y175874D01*
X-148760Y175678D01*
X-148629Y175448D01*
X-148563Y175185D01*
Y174923D01*
X-148629Y174661D01*
X-148760Y174431D01*
X-148957Y174234D01*
X-149186Y174103D01*
X-149449Y174070D01*
G01X-147546D02*
Y176039D01*
X-146759D01*
X-146496Y175940D01*
X-146299Y175711D01*
X-146233Y175448D01*
X-146299Y175185D01*
X-146463Y174989D01*
X-146759Y174890D01*
X-147546D01*
G01X-141050Y175874D02*
X-141247Y175973D01*
X-141476Y176039D01*
X-141739D01*
X-142034Y175940D01*
X-142264Y175776D01*
X-142428Y175579D01*
X-142559Y175251D01*
X-142592Y174956D01*
X-142526Y174661D01*
X-142428Y174464D01*
X-142231Y174267D01*
X-142001Y174136D01*
X-141772Y174070D01*
X-141542D01*
X-141312Y174136D01*
X-141115Y174234D01*
X-140952Y174365D01*
G01X-139213Y174070D02*
X-139475Y174103D01*
X-139705Y174234D01*
X-139902Y174431D01*
X-140033Y174661D01*
X-140098Y174923D01*
Y175185D01*
X-140033Y175448D01*
X-139902Y175678D01*
X-139705Y175874D01*
X-139475Y176006D01*
X-139213Y176039D01*
X-138950Y176006D01*
X-138720Y175874D01*
X-138524Y175678D01*
X-138393Y175448D01*
X-138327Y175185D01*
Y174923D01*
X-138393Y174661D01*
X-138524Y174431D01*
X-138720Y174234D01*
X-138950Y174103D01*
X-139213Y174070D01*
G01X-137408D02*
Y176039D01*
X-135899Y174070D01*
Y176039D01*
G01X-134816Y174070D02*
Y176039D01*
X-134160D01*
X-133898Y175940D01*
X-133701Y175809D01*
X-133537Y175612D01*
X-133406Y175382D01*
X-133373Y175054D01*
X-133406Y174726D01*
X-133537Y174496D01*
X-133701Y174300D01*
X-133898Y174169D01*
X-134160Y174070D01*
X-134816D01*
G01X-132257Y176039D02*
Y174628D01*
X-132126Y174333D01*
X-131863Y174136D01*
X-131535Y174070D01*
X-131207Y174136D01*
X-130945Y174333D01*
X-130814Y174628D01*
Y176039D01*
G01X-128255Y175874D02*
X-128452Y175973D01*
X-128681Y176039D01*
X-128944D01*
X-129239Y175940D01*
X-129469Y175776D01*
X-129633Y175579D01*
X-129764Y175251D01*
X-129796Y174956D01*
X-129731Y174661D01*
X-129633Y174464D01*
X-129436Y174267D01*
X-129206Y174136D01*
X-128976Y174070D01*
X-128747D01*
X-128517Y174136D01*
X-128320Y174234D01*
X-128156Y174365D01*
G01X-126417Y176039D02*
Y174070D01*
G01X-127172Y176039D02*
X-125663D01*
G01X-123858Y174070D02*
X-124121Y174103D01*
X-124350Y174234D01*
X-124547Y174431D01*
X-124678Y174661D01*
X-124744Y174923D01*
Y175185D01*
X-124678Y175448D01*
X-124547Y175678D01*
X-124350Y175874D01*
X-124121Y176006D01*
X-123858Y176039D01*
X-123596Y176006D01*
X-123366Y175874D01*
X-123169Y175678D01*
X-123038Y175448D01*
X-122972Y175185D01*
Y174923D01*
X-123038Y174661D01*
X-123169Y174431D01*
X-123366Y174234D01*
X-123596Y174103D01*
X-123858Y174070D01*
G01X-121956D02*
Y176039D01*
X-121135D01*
X-120873Y175940D01*
X-120709Y175809D01*
X-120643Y175546D01*
X-120709Y175284D01*
X-120906Y175120D01*
X-121135Y175022D01*
X-121956D01*
G01X-121135D02*
X-120643Y174070D01*
G01X-116607Y174726D02*
X-115755D01*
G01X-110341Y175874D02*
X-110538Y175973D01*
X-110768Y176039D01*
X-111030D01*
X-111326Y175940D01*
X-111555Y175776D01*
X-111719Y175579D01*
X-111850Y175251D01*
X-111883Y174956D01*
X-111818Y174661D01*
X-111719Y174464D01*
X-111522Y174267D01*
X-111293Y174136D01*
X-111063Y174070D01*
X-110833D01*
X-110604Y174136D01*
X-110407Y174234D01*
X-110243Y174365D01*
G01X-108504Y174070D02*
X-108767Y174103D01*
X-108996Y174234D01*
X-109193Y174431D01*
X-109324Y174661D01*
X-109390Y174923D01*
Y175185D01*
X-109324Y175448D01*
X-109193Y175678D01*
X-108996Y175874D01*
X-108767Y176006D01*
X-108504Y176039D01*
X-108241Y176006D01*
X-108012Y175874D01*
X-107815Y175678D01*
X-107684Y175448D01*
X-107618Y175185D01*
Y174923D01*
X-107684Y174661D01*
X-107815Y174431D01*
X-108012Y174234D01*
X-108241Y174103D01*
X-108504Y174070D01*
G01X-106601D02*
Y176039D01*
X-105814D01*
X-105551Y175940D01*
X-105354Y175711D01*
X-105289Y175448D01*
X-105354Y175185D01*
X-105519Y174989D01*
X-105814Y174890D01*
X-106601D01*
G01X-104042Y174070D02*
Y176039D01*
X-103255D01*
X-102992Y175940D01*
X-102795Y175711D01*
X-102730Y175448D01*
X-102795Y175185D01*
X-102959Y174989D01*
X-103255Y174890D01*
X-104042D01*
G01X-100170Y174070D02*
X-101483D01*
Y176039D01*
X-100170D01*
G01X-100696Y175087D02*
X-101483D01*
G01X-98924Y174070D02*
Y176039D01*
X-98104D01*
X-97841Y175940D01*
X-97677Y175809D01*
X-97611Y175546D01*
X-97677Y175284D01*
X-97874Y175120D01*
X-98104Y175022D01*
X-98924D01*
G01X-98104D02*
X-97611Y174070D01*
G01X-93150Y176039D02*
X-93412Y175973D01*
X-93609Y175809D01*
X-93740Y175612D01*
X-93839Y175350D01*
X-93871Y175054D01*
X-93839Y174759D01*
X-93740Y174496D01*
X-93609Y174300D01*
X-93412Y174136D01*
X-93150Y174070D01*
X-92887Y174136D01*
X-92690Y174300D01*
X-92559Y174496D01*
X-92461Y174759D01*
X-92428Y175054D01*
X-92461Y175350D01*
X-92559Y175612D01*
X-92690Y175809D01*
X-92887Y175973D01*
X-93150Y176039D01*
G01X-90591Y174004D02*
X-90656Y174037D01*
Y174103D01*
X-90591Y174136D01*
X-90525Y174103D01*
Y174037D01*
X-90591Y174004D01*
G01X-88031Y176039D02*
X-88294Y175973D01*
X-88491Y175809D01*
X-88622Y175612D01*
X-88720Y175350D01*
X-88753Y175054D01*
X-88720Y174759D01*
X-88622Y174496D01*
X-88491Y174300D01*
X-88294Y174136D01*
X-88031Y174070D01*
X-87769Y174136D01*
X-87572Y174300D01*
X-87441Y174496D01*
X-87343Y174759D01*
X-87310Y175054D01*
X-87343Y175350D01*
X-87441Y175612D01*
X-87572Y175809D01*
X-87769Y175973D01*
X-88031Y176039D01*
G01X-85472Y174070D02*
Y176039D01*
X-85866Y175645D01*
G01Y174070D02*
X-85079D01*
G01X-82913D02*
X-82684Y174103D01*
X-82421Y174201D01*
X-82257Y174365D01*
X-82192Y174595D01*
X-82257Y174825D01*
X-82454Y175022D01*
X-82749Y175120D01*
X-83078D01*
X-83274Y175185D01*
X-83438Y175350D01*
X-83504Y175579D01*
X-83406Y175809D01*
X-83176Y175973D01*
X-82913Y176039D01*
X-82651Y175973D01*
X-82421Y175809D01*
X-82323Y175579D01*
X-82389Y175350D01*
X-82552Y175185D01*
X-82749Y175120D01*
X-83078D01*
X-83373Y175022D01*
X-83570Y174825D01*
X-83635Y174595D01*
X-83570Y174365D01*
X-83406Y174201D01*
X-83143Y174103D01*
X-82913Y174070D01*
G01X-78648D02*
Y176039D01*
X-77795Y174398D01*
X-76942Y176039D01*
Y174070D01*
G01X-76089D02*
Y176039D01*
X-75236Y174398D01*
X-74383Y176039D01*
Y174070D01*
G01X63176Y-43189D02*
Y-41220D01*
X64422D01*
G01X63963Y-42172D02*
X63176D01*
G01X65965Y-41220D02*
X66752D01*
G01X66358D02*
Y-43189D01*
G01X65965D02*
X66752D01*
G01X69114Y-42205D02*
X69770D01*
Y-42795D01*
X69574Y-42992D01*
X69344Y-43123D01*
X69016Y-43189D01*
X68688Y-43123D01*
X68458Y-42992D01*
X68261Y-42795D01*
X68130Y-42566D01*
X68064Y-42303D01*
Y-42074D01*
X68130Y-41877D01*
X68261Y-41647D01*
X68458Y-41450D01*
X68655Y-41319D01*
X68917Y-41220D01*
X69147D01*
X69409Y-41286D01*
X69606Y-41417D01*
G01X70755Y-41220D02*
Y-42631D01*
X70886Y-42926D01*
X71148Y-43123D01*
X71476Y-43189D01*
X71804Y-43123D01*
X72067Y-42926D01*
X72198Y-42631D01*
Y-41220D01*
G01X73379Y-43189D02*
Y-41220D01*
X74200D01*
X74462Y-41319D01*
X74626Y-41450D01*
X74692Y-41713D01*
X74626Y-41975D01*
X74429Y-42139D01*
X74200Y-42237D01*
X73379D01*
G01X74200D02*
X74692Y-43189D01*
G01X77251D02*
X75938D01*
Y-41220D01*
X77251D01*
G01X76726Y-42172D02*
X75938D01*
G01X75381Y-39252D02*
X76201Y-37283D01*
X77021Y-39252D01*
G01X76726Y-38563D02*
X75676D01*
G01X78104Y-37283D02*
Y-39252D01*
X79416D01*
G01X80663Y-37283D02*
Y-39252D01*
X81975D01*
G01X85715Y-37283D02*
Y-38694D01*
X85846Y-38989D01*
X86109Y-39186D01*
X86437Y-39252D01*
X86765Y-39186D01*
X87028Y-38989D01*
X87159Y-38694D01*
Y-37283D01*
G01X88241Y-39252D02*
Y-37283D01*
X89751Y-39252D01*
Y-37283D01*
G01X91161D02*
X91949D01*
G01X91555D02*
Y-39252D01*
G01X91161D02*
X91949D01*
G01X94114Y-37283D02*
Y-39252D01*
G01X93359Y-37283D02*
X94869D01*
G01X95984Y-38989D02*
X96247Y-39154D01*
X96542Y-39252D01*
X96804D01*
X97067Y-39154D01*
X97264Y-38989D01*
X97362Y-38760D01*
X97296Y-38530D01*
X97133Y-38333D01*
X96837Y-38202D01*
X96444Y-38137D01*
X96214Y-38005D01*
X96115Y-37776D01*
X96181Y-37546D01*
X96345Y-37382D01*
X96575Y-37283D01*
X96804D01*
X97034Y-37349D01*
X97231Y-37513D01*
G01X100971Y-39252D02*
X101791Y-37283D01*
X102611Y-39252D01*
G01X102316Y-38563D02*
X101267D01*
G01X103694Y-39252D02*
Y-37283D01*
X104515D01*
X104777Y-37382D01*
X104941Y-37513D01*
X105007Y-37776D01*
X104941Y-38038D01*
X104744Y-38202D01*
X104515Y-38300D01*
X103694D01*
G01X104515D02*
X105007Y-39252D01*
G01X107566D02*
X106253D01*
Y-37283D01*
X107566D01*
G01X107041Y-38235D02*
X106253D01*
G01X111634Y-37283D02*
X112421D01*
G01X112028D02*
Y-39252D01*
G01X111634D02*
X112421D01*
G01X113832D02*
Y-37283D01*
X115341Y-39252D01*
Y-37283D01*
G01X118852Y-39252D02*
Y-37283D01*
X119705Y-38924D01*
X120558Y-37283D01*
Y-39252D01*
G01X121870Y-37283D02*
X122657D01*
G01X122264D02*
Y-39252D01*
G01X121870D02*
X122657D01*
G01X124167Y-37283D02*
Y-39252D01*
X125479D01*
G01X126726Y-37283D02*
Y-39252D01*
X128038D01*
G01X129547Y-37283D02*
X130335D01*
G01X129941D02*
Y-39252D01*
G01X129547D02*
X130335D01*
G01X131647D02*
Y-37283D01*
X132500Y-38924D01*
X133353Y-37283D01*
Y-39252D01*
G01X135715D02*
X134403D01*
Y-37283D01*
X135715D01*
G01X135190Y-38235D02*
X134403D01*
G01X137618Y-37283D02*
Y-39252D01*
G01X136863Y-37283D02*
X138373D01*
G01X140833Y-39252D02*
X139521D01*
Y-37283D01*
X140833D01*
G01X140308Y-38235D02*
X139521D01*
G01X142080Y-39252D02*
Y-37283D01*
X142900D01*
X143163Y-37382D01*
X143327Y-37513D01*
X143393Y-37776D01*
X143327Y-38038D01*
X143130Y-38202D01*
X142900Y-38300D01*
X142080D01*
G01X142900D02*
X143393Y-39252D01*
G01X144606Y-38989D02*
X144869Y-39154D01*
X145164Y-39252D01*
X145426D01*
X145689Y-39154D01*
X145886Y-38989D01*
X145984Y-38760D01*
X145919Y-38530D01*
X145755Y-38333D01*
X145459Y-38202D01*
X145066Y-38137D01*
X144836Y-38005D01*
X144737Y-37776D01*
X144803Y-37546D01*
X144967Y-37382D01*
X145197Y-37283D01*
X145426D01*
X145656Y-37349D01*
X145853Y-37513D01*
G01X94409Y-42926D02*
X94672Y-43091D01*
X94967Y-43189D01*
X95230D01*
X95492Y-43091D01*
X95689Y-42926D01*
X95787Y-42697D01*
X95722Y-42467D01*
X95558Y-42270D01*
X95263Y-42139D01*
X94869Y-42074D01*
X94639Y-41942D01*
X94541Y-41713D01*
X94606Y-41483D01*
X94770Y-41319D01*
X95000Y-41220D01*
X95230D01*
X95459Y-41286D01*
X95656Y-41450D01*
G01X97264Y-41220D02*
X98051D01*
G01X97657D02*
Y-43189D01*
G01X97264D02*
X98051D01*
G01X99593Y-41220D02*
X100840D01*
X99593Y-43189D01*
X100840D01*
G01X103432D02*
X102119D01*
Y-41220D01*
X103432D01*
G01X102907Y-42172D02*
X102119D01*
G01X96378Y-46939D02*
X96115Y-47005D01*
X95919Y-47169D01*
X95787Y-47365D01*
X95689Y-47628D01*
X95656Y-47923D01*
X95689Y-48219D01*
X95787Y-48481D01*
X95919Y-48678D01*
X96115Y-48842D01*
X96378Y-48907D01*
X96641Y-48842D01*
X96837Y-48678D01*
X96969Y-48481D01*
X97067Y-48219D01*
X97100Y-47923D01*
X97067Y-47628D01*
X96969Y-47365D01*
X96837Y-47169D01*
X96641Y-47005D01*
X96378Y-46939D01*
G01X98937Y-48973D02*
X98871Y-48940D01*
Y-48875D01*
X98937Y-48842D01*
X99003Y-48875D01*
Y-48940D01*
X98937Y-48973D01*
G01X101890Y-48907D02*
Y-46939D01*
X100676Y-48350D01*
X102316D01*
G01X78038Y-13661D02*
Y-11693D01*
X78694D01*
X78957Y-11791D01*
X79154Y-11922D01*
X79318Y-12119D01*
X79449Y-12349D01*
X79481Y-12677D01*
X79449Y-13005D01*
X79318Y-13235D01*
X79154Y-13432D01*
X78957Y-13563D01*
X78694Y-13661D01*
X78038D01*
G01X80663D02*
Y-11693D01*
X81483D01*
X81745Y-11791D01*
X81909Y-11922D01*
X81975Y-12185D01*
X81909Y-12448D01*
X81713Y-12611D01*
X81483Y-12710D01*
X80663D01*
G01X81483D02*
X81975Y-13661D01*
G01X83484Y-11693D02*
X84272D01*
G01X83878D02*
Y-13661D01*
G01X83484D02*
X84272D01*
G01X85781Y-11693D02*
Y-13661D01*
X87093D01*
G01X88340Y-11693D02*
Y-13661D01*
X89652D01*
G01X94836Y-11857D02*
X94639Y-11759D01*
X94409Y-11693D01*
X94147D01*
X93852Y-11791D01*
X93622Y-11956D01*
X93458Y-12152D01*
X93327Y-12480D01*
X93294Y-12776D01*
X93359Y-13071D01*
X93458Y-13268D01*
X93655Y-13465D01*
X93885Y-13596D01*
X94114Y-13661D01*
X94344D01*
X94574Y-13596D01*
X94770Y-13497D01*
X94934Y-13366D01*
G01X95984Y-13661D02*
Y-11693D01*
G01X97362D02*
Y-13661D01*
G01Y-12677D02*
X95984D01*
G01X98412Y-13661D02*
X99232Y-11693D01*
X100052Y-13661D01*
G01X99757Y-12972D02*
X98707D01*
G01X101135Y-13661D02*
Y-11693D01*
X101956D01*
X102218Y-11791D01*
X102382Y-11922D01*
X102448Y-12185D01*
X102382Y-12448D01*
X102185Y-12611D01*
X101956Y-12710D01*
X101135D01*
G01X101956D02*
X102448Y-13661D01*
G01X104350Y-11693D02*
Y-13661D01*
G01X103596Y-11693D02*
X105105D01*
G01X106909Y-13727D02*
X106844Y-13694D01*
Y-13629D01*
X106909Y-13596D01*
X106975Y-13629D01*
Y-13694D01*
X106909Y-13727D01*
G01Y-12841D02*
X106844Y-12808D01*
Y-12743D01*
X106909Y-12710D01*
X106975Y-12743D01*
Y-12808D01*
X106909Y-12841D01*
G01X112028Y-11693D02*
Y-13661D01*
G01X111273Y-11693D02*
X112782D01*
G01X114587Y-13661D02*
X114324Y-13629D01*
X114094Y-13497D01*
X113898Y-13300D01*
X113767Y-13071D01*
X113701Y-12808D01*
Y-12546D01*
X113767Y-12283D01*
X113898Y-12054D01*
X114094Y-11857D01*
X114324Y-11726D01*
X114587Y-11693D01*
X114849Y-11726D01*
X115079Y-11857D01*
X115276Y-12054D01*
X115407Y-12283D01*
X115472Y-12546D01*
Y-12808D01*
X115407Y-13071D01*
X115276Y-13300D01*
X115079Y-13497D01*
X114849Y-13629D01*
X114587Y-13661D01*
G01X116489D02*
Y-11693D01*
X117277D01*
X117539Y-11791D01*
X117736Y-12021D01*
X117802Y-12283D01*
X117736Y-12546D01*
X117572Y-12743D01*
X117277Y-12841D01*
X116489D01*
G01X122264Y-11693D02*
Y-13661D01*
G01X121804Y-12349D02*
X122723D01*
G01X124823Y-13661D02*
X124626Y-13629D01*
X124429Y-13497D01*
X124298Y-13268D01*
X124232Y-13005D01*
X124298Y-12743D01*
X124429Y-12513D01*
X124626Y-12382D01*
X124823Y-12349D01*
X125020Y-12382D01*
X125217Y-12513D01*
X125348Y-12743D01*
X125381Y-13005D01*
X125348Y-13268D01*
X125217Y-13497D01*
X125020Y-13629D01*
X124823Y-13661D01*
G01X130204Y-12611D02*
X130335Y-12513D01*
X130433Y-12349D01*
X130499Y-12119D01*
X130433Y-11922D01*
X130302Y-11791D01*
X130072Y-11693D01*
X129186D01*
Y-13661D01*
X130269D01*
X130499Y-13530D01*
X130630Y-13333D01*
X130696Y-13104D01*
X130630Y-12874D01*
X130433Y-12677D01*
X130204Y-12611D01*
X129186D01*
G01X132500Y-13661D02*
X132237Y-13629D01*
X132008Y-13497D01*
X131811Y-13300D01*
X131680Y-13071D01*
X131614Y-12808D01*
Y-12546D01*
X131680Y-12283D01*
X131811Y-12054D01*
X132008Y-11857D01*
X132237Y-11726D01*
X132500Y-11693D01*
X132763Y-11726D01*
X132992Y-11857D01*
X133189Y-12054D01*
X133320Y-12283D01*
X133386Y-12546D01*
Y-12808D01*
X133320Y-13071D01*
X133189Y-13300D01*
X132992Y-13497D01*
X132763Y-13629D01*
X132500Y-13661D01*
G01X135059Y-11693D02*
Y-13661D01*
G01X134304Y-11693D02*
X135814D01*
G01X137618D02*
Y-13661D01*
G01X136863Y-11693D02*
X138373D01*
G01X140177Y-13661D02*
X139915Y-13629D01*
X139685Y-13497D01*
X139488Y-13300D01*
X139357Y-13071D01*
X139291Y-12808D01*
Y-12546D01*
X139357Y-12283D01*
X139488Y-12054D01*
X139685Y-11857D01*
X139915Y-11726D01*
X140177Y-11693D01*
X140440Y-11726D01*
X140669Y-11857D01*
X140866Y-12054D01*
X140997Y-12283D01*
X141063Y-12546D01*
Y-12808D01*
X140997Y-13071D01*
X140866Y-13300D01*
X140669Y-13497D01*
X140440Y-13629D01*
X140177Y-13661D01*
G01X141883D02*
Y-11693D01*
X142736Y-13333D01*
X143589Y-11693D01*
Y-13661D01*
G01X79311Y170591D02*
Y172559D01*
X78097Y171148D01*
X79737D01*
G01X81476Y172559D02*
X81214Y172493D01*
X81017Y172330D01*
X80886Y172133D01*
X80787Y171870D01*
X80755Y171575D01*
X80787Y171280D01*
X80886Y171017D01*
X81017Y170820D01*
X81214Y170656D01*
X81476Y170591D01*
X81739Y170656D01*
X81936Y170820D01*
X82067Y171017D01*
X82165Y171280D01*
X82198Y171575D01*
X82165Y171870D01*
X82067Y172133D01*
X81936Y172330D01*
X81739Y172493D01*
X81476Y172559D01*
G01X124462Y-43189D02*
Y-41220D01*
X125249D01*
X125512Y-41319D01*
X125709Y-41548D01*
X125774Y-41811D01*
X125709Y-42074D01*
X125544Y-42270D01*
X125249Y-42369D01*
X124462D01*
G01X127021Y-41220D02*
Y-43189D01*
X128333D01*
G01X129416D02*
X130236Y-41220D01*
X131056Y-43189D01*
G01X130761Y-42500D02*
X129711D01*
G01X132795Y-41220D02*
Y-43189D01*
G01X132041Y-41220D02*
X133550D01*
G01X136011Y-43189D02*
X134698D01*
Y-41220D01*
X136011D01*
G01X135485Y-42172D02*
X134698D01*
G01X137192Y-43189D02*
Y-41220D01*
X137848D01*
X138110Y-41319D01*
X138307Y-41450D01*
X138471Y-41647D01*
X138602Y-41877D01*
X138635Y-42205D01*
X138602Y-42533D01*
X138471Y-42763D01*
X138307Y-42959D01*
X138110Y-43091D01*
X137848Y-43189D01*
X137192D01*
G01X124462Y-48907D02*
Y-46939D01*
X125249D01*
X125512Y-47037D01*
X125709Y-47267D01*
X125774Y-47530D01*
X125709Y-47792D01*
X125544Y-47989D01*
X125249Y-48087D01*
X124462D01*
G01X127021Y-46939D02*
Y-48907D01*
X128333D01*
G01X129416D02*
X130236Y-46939D01*
X131056Y-48907D01*
G01X130761Y-48219D02*
X129711D01*
G01X132795Y-46939D02*
Y-48907D01*
G01X132041Y-46939D02*
X133550D01*
G01X136011Y-48907D02*
X134698D01*
Y-46939D01*
X136011D01*
G01X135485Y-47891D02*
X134698D01*
G01X137192Y-48907D02*
Y-46939D01*
X137848D01*
X138110Y-47037D01*
X138307Y-47169D01*
X138471Y-47365D01*
X138602Y-47595D01*
X138635Y-47923D01*
X138602Y-48251D01*
X138471Y-48481D01*
X138307Y-48678D01*
X138110Y-48809D01*
X137848Y-48907D01*
X137192D01*
G01X150020Y-43189D02*
X149757Y-43156D01*
X149528Y-43025D01*
X149331Y-42828D01*
X149200Y-42598D01*
X149134Y-42336D01*
Y-42074D01*
X149200Y-41811D01*
X149331Y-41581D01*
X149528Y-41385D01*
X149757Y-41253D01*
X150020Y-41220D01*
X150282Y-41253D01*
X150512Y-41385D01*
X150709Y-41581D01*
X150840Y-41811D01*
X150906Y-42074D01*
Y-42336D01*
X150840Y-42598D01*
X150709Y-42828D01*
X150512Y-43025D01*
X150282Y-43156D01*
X150020Y-43189D01*
G01X150282Y-42664D02*
X150676Y-43189D01*
G01X152579Y-41220D02*
Y-43189D01*
G01X151824Y-41220D02*
X153333D01*
G01X155138Y-43189D02*
Y-42303D01*
X154481Y-41220D01*
G01X155794D02*
X155138Y-42303D01*
G01X150676Y-47267D02*
X150873Y-47070D01*
X151102Y-46972D01*
X151365Y-46939D01*
X151693Y-47005D01*
X151922Y-47169D01*
X151988Y-47365D01*
X151956Y-47562D01*
X151824Y-47726D01*
X151168Y-48054D01*
X150873Y-48284D01*
X150676Y-48612D01*
X150610Y-48907D01*
X151988D01*
G01X153235Y-48087D02*
X153465Y-47857D01*
X153661Y-47726D01*
X153924Y-47661D01*
X154154Y-47726D01*
X154318Y-47857D01*
X154449Y-48054D01*
X154481Y-48284D01*
X154449Y-48481D01*
X154318Y-48678D01*
X154121Y-48842D01*
X153891Y-48907D01*
X153629Y-48842D01*
X153399Y-48645D01*
X153268Y-48350D01*
X153235Y-48022D01*
X153300Y-47595D01*
X153399Y-47365D01*
X153563Y-47136D01*
X153793Y-46972D01*
X154022Y-46939D01*
X154252Y-47005D01*
X154416Y-47169D01*
G01X178957Y77913D02*
Y79882D01*
X177743Y78471D01*
X179383D01*
G01X181122Y79882D02*
X180859Y79816D01*
X180663Y79652D01*
X180531Y79456D01*
X180433Y79193D01*
X180400Y78898D01*
X180433Y78602D01*
X180531Y78340D01*
X180663Y78143D01*
X180859Y77979D01*
X181122Y77913D01*
X181385Y77979D01*
X181581Y78143D01*
X181713Y78340D01*
X181811Y78602D01*
X181844Y78898D01*
X181811Y79193D01*
X181713Y79456D01*
X181581Y79652D01*
X181385Y79816D01*
X181122Y79882D01*
G54D12*
G01X-225787Y-22613D02*
Y174427D01*
X-165787D01*
Y-22613D01*
X-225787D01*
G01X0Y0D02*
Y157480D01*
X157480D01*
Y0D01*
X0D01*
G01Y167323D02*
Y181417D01*
G01X76260Y171575D02*
X0D01*
G01X15748Y174035D02*
X0Y171575D01*
X15748Y169114D01*
Y174035D01*
G01X60945Y-51673D02*
Y-10709D01*
X160551D01*
Y-51673D01*
X60945D01*
G01Y-36299D02*
X160551D01*
G01X60945Y-40236D02*
X160551D01*
G01X60945Y-44173D02*
X160551D01*
G01X79449Y-40236D02*
Y-51673D01*
G01X84134Y171575D02*
X157480D01*
G01X118425Y-40236D02*
Y-51673D01*
G01X144606Y-40236D02*
Y-51673D01*
G01X157480Y167323D02*
Y181417D01*
G01X141732Y169114D02*
X157480Y171575D01*
X141732Y174035D01*
Y169114D01*
G01X167323Y0D02*
X189685D01*
G01X179843Y76240D02*
Y0D01*
G01X177382Y15748D02*
X179843Y0D01*
X182303Y15748D01*
X177382D01*
G01X179843Y81555D02*
Y157480D01*
G01X167323D02*
X189685D01*
G01X182303Y141732D02*
X179843Y157480D01*
X177382Y141732D01*
X182303D01*
M02*
