G04 ================== begin FILE IDENTIFICATION RECORD ==================*
G04 Layout Name:  SCH_TRANSFER.brd*
G04 Film Name:    SPTOP*
G04 File Format:  Gerber RS274X*
G04 File Origin:  Cadence Allegro 16.6-2015-S059*
G04 Origin Date:  Sun Dec 07 17:30:41 2025*
G04 *
G04 Layer:  VIA CLASS/PASTEMASK_TOP*
G04 Layer:  PIN/PASTEMASK_TOP*
G04 Layer:  PACKAGE GEOMETRY/PASTEMASK_TOP*
G04 Layer:  DRC ERROR CLASS/PASTEMASK_TOP*
G04 *
G04 Offset:    (0.0000 0.0000)*
G04 Mirror:    No*
G04 Mode:      Positive*
G04 Rotation:  0*
G04 FullContactRelief:  No*
G04 UndefLineWidth:     0.3000*
G04 ================== end FILE IDENTIFICATION RECORD ====================*
%FSLAX25Y25*MOIN*%
%IR0*IPPOS*OFA0.00000B0.00000*MIA0B0*SFA1.00000B1.00000*%
%ADD15R,.031496X.043307*%
%ADD17R,.043307X.031496*%
%ADD18R,.031496X.051181*%
%ADD11R,.051181X.031496*%
%ADD20R,.049213X.033465*%
%ADD14R,.059055X.043307*%
%ADD22R,.086614X.055118*%
%ADD16R,.043307X.059055*%
%ADD19R,.055118X.086614*%
%ADD12R,.062992X.106299*%
%ADD13R,.041339X.061024*%
%ADD10R,.05315X.088583*%
%ADD21R,.051181X.051181*%
%LPD*%
G75*
G54D10*
X10508Y18858D03*
X23508D03*
X37161D03*
X50161D03*
X132358Y13740D03*
X145358D03*
G54D20*
X69882Y52008D03*
Y59094D03*
X87835Y52008D03*
Y59094D03*
X78228Y52008D03*
Y59094D03*
X103819Y49134D03*
Y56220D03*
X119843Y49094D03*
Y56181D03*
X112008Y49094D03*
Y56181D03*
X125827Y110039D03*
Y102953D03*
X145315Y42874D03*
Y49961D03*
X134134Y121063D03*
Y113976D03*
G54D11*
X8661Y96457D03*
Y104331D03*
X36417Y64685D03*
Y56811D03*
X15276Y55433D03*
Y63307D03*
X50197Y34921D03*
X64882Y68701D03*
X50197Y42795D03*
X64882Y76575D03*
X64567Y126772D03*
Y118898D03*
X51339Y130866D03*
Y138740D03*
X85748Y41654D03*
Y33780D03*
X82992Y107008D03*
Y114882D03*
X119843Y40157D03*
Y32283D03*
X145236Y124961D03*
X145118Y106969D03*
Y114843D03*
X145236Y132835D03*
G54D21*
X87559Y11299D03*
Y20354D03*
X121299Y11220D03*
Y20276D03*
X122677Y135866D03*
Y144921D03*
X143858Y95354D03*
X134803D03*
G54D12*
X11260Y83937D03*
G54D13*
X15276Y37874D03*
X37165Y34921D03*
Y42795D03*
X15276Y45748D03*
G54D22*
X139331Y73110D03*
G54D14*
X22362Y99213D03*
Y107087D03*
G54D15*
X34680Y77451D03*
X38780Y85551D03*
X30580D03*
X81102Y70984D03*
X89302D03*
X85202Y79084D03*
X108234Y81328D03*
X104134Y73228D03*
X112334D03*
G54D16*
X33504Y121299D03*
X25630D03*
X137480Y144764D03*
X145354D03*
G54D17*
X40443Y103746D03*
X59281Y85861D03*
X51181Y89961D03*
Y81761D03*
X71034Y90714D03*
X48543Y99646D03*
X64567Y99803D03*
X48543Y107846D03*
X56467Y103903D03*
X64567Y108003D03*
X79134Y86614D03*
Y94814D03*
X103947Y107250D03*
X112047Y103150D03*
Y111350D03*
G54D18*
X69803Y41654D03*
X53071Y68425D03*
X45197D03*
X52087Y52559D03*
X59961D03*
X56260Y117087D03*
X48386D03*
X99016Y39173D03*
X77677Y41654D03*
X81339Y147205D03*
X89213D03*
X106890Y39173D03*
X113465Y93976D03*
X105591D03*
X145236Y33425D03*
X137362D03*
G54D19*
X65315Y15827D03*
X99055Y15748D03*
X100433Y140394D03*
M02*
