G04 ================== begin FILE IDENTIFICATION RECORD ==================*
G04 Layout Name:  SCH_TRANSFER.brd*
G04 Film Name:    SSTOP*
G04 File Format:  Gerber RS274X*
G04 File Origin:  Cadence Allegro 16.6-2015-S059*
G04 Origin Date:  Mon Dec 08 22:27:18 2025*
G04 *
G04 Layer:  REF DES/SILKSCREEN_TOP*
G04 Layer:  PACKAGE GEOMETRY/SILKSCREEN_TOP*
G04 Layer:  BOARD GEOMETRY/SILKSCREEN_TOP*
G04 *
G04 Offset:    (0.0000 0.0000)*
G04 Mirror:    No*
G04 Mode:      Positive*
G04 Rotation:  0*
G04 FullContactRelief:  No*
G04 UndefLineWidth:     0.3000*
G04 ================== end FILE IDENTIFICATION RECORD ====================*
%FSLAX25Y25*MOIN*%
%IR0*IPPOS*OFA0.00000B0.00000*MIA0B0*SFA1.00000B1.00000*%
%ADD10C,.003937*%
%ADD11C,.007874*%
%ADD12C,.009843*%
%ADD13C,.011811*%
G75*
%LPD*%
G75*
G54D10*
G01X8812Y73228D02*
X8976Y73031D01*
X9173Y72900D01*
X9403Y72835D01*
X9665Y72900D01*
X9862Y73031D01*
X10059Y73228D01*
X10125Y73491D01*
Y74803D01*
G01X11306Y73228D02*
X11503Y72999D01*
X11765Y72867D01*
X12060Y72835D01*
X12323Y72867D01*
X12585Y73031D01*
X12749Y73228D01*
X12782Y73425D01*
X12717Y73655D01*
X12487Y73819D01*
X12257Y73885D01*
X11962D01*
G01X12257D02*
X12454Y73983D01*
X12618Y74147D01*
X12684Y74344D01*
X12618Y74541D01*
X12454Y74705D01*
X12159Y74803D01*
X11863Y74770D01*
X11568Y74639D01*
G01X7336Y149724D02*
Y151693D01*
X8189Y150052D01*
X9042Y151693D01*
Y149724D01*
G01X10190Y151037D02*
Y150118D01*
X10322Y149889D01*
X10519Y149757D01*
X10748Y149724D01*
X10978Y149757D01*
X11174Y149889D01*
X11306Y150118D01*
G01Y149724D02*
Y151037D01*
G01X13307Y151693D02*
Y149724D01*
G01X12848Y151037D02*
X13767D01*
G01X15308D02*
Y150118D01*
X15440Y149889D01*
X15637Y149757D01*
X15866Y149724D01*
X16096Y149757D01*
X16293Y149889D01*
X16424Y150118D01*
G01Y149724D02*
Y151037D01*
G01X18425Y149724D02*
Y151693D01*
G01X20492Y150610D02*
X21542D01*
X21444Y150840D01*
X21280Y150971D01*
X21050Y151037D01*
X20820Y151004D01*
X20623Y150906D01*
X20492Y150676D01*
X20426Y150479D01*
Y150282D01*
X20492Y150085D01*
X20656Y149889D01*
X20853Y149757D01*
X21083Y149724D01*
X21312Y149790D01*
X21542Y149987D01*
G01X24134Y149724D02*
Y151037D01*
G01Y150807D02*
X24003Y150938D01*
X23806Y151004D01*
X23576Y151037D01*
X23346Y150971D01*
X23150Y150840D01*
X23019Y150643D01*
X22953Y150381D01*
X23019Y150118D01*
X23150Y149921D01*
X23346Y149790D01*
X23576Y149724D01*
X23806Y149757D01*
X24003Y149856D01*
X24134Y149987D01*
G01X25610Y149954D02*
X25774Y149823D01*
X26004Y149724D01*
X26201D01*
X26398Y149790D01*
X26529Y149889D01*
X26594Y150020D01*
X26562Y150217D01*
X26430Y150315D01*
X25840Y150512D01*
X25709Y150741D01*
X25774Y150906D01*
X25906Y151004D01*
X26102Y151037D01*
X26299Y151004D01*
X26496Y150906D01*
G01X29252Y149724D02*
Y151037D01*
G01Y150807D02*
X29121Y150938D01*
X28924Y151004D01*
X28694Y151037D01*
X28465Y150971D01*
X28268Y150840D01*
X28137Y150643D01*
X28071Y150381D01*
X28137Y150118D01*
X28268Y149921D01*
X28465Y149790D01*
X28694Y149724D01*
X28924Y149757D01*
X29121Y149856D01*
X29252Y149987D01*
G01X33058Y149724D02*
Y151693D01*
X33714D01*
X33976Y151594D01*
X34173Y151463D01*
X34337Y151267D01*
X34469Y151037D01*
X34501Y150709D01*
X34469Y150381D01*
X34337Y150151D01*
X34173Y149954D01*
X33976Y149823D01*
X33714Y149724D01*
X33058D01*
G01X36929D02*
Y151037D01*
G01Y150807D02*
X36798Y150938D01*
X36601Y151004D01*
X36371Y151037D01*
X36142Y150971D01*
X35945Y150840D01*
X35814Y150643D01*
X35748Y150381D01*
X35814Y150118D01*
X35945Y149921D01*
X36142Y149790D01*
X36371Y149724D01*
X36601Y149757D01*
X36798Y149856D01*
X36929Y149987D01*
G01X38307Y151037D02*
X38898Y149724D01*
X39488Y151037D01*
G01X41457D02*
Y149724D01*
G01Y151562D02*
X41391Y151594D01*
Y151660D01*
X41457Y151693D01*
X41522Y151660D01*
Y151594D01*
X41457Y151562D01*
G01X44606Y151693D02*
Y149724D01*
G01Y150020D02*
X44475Y149856D01*
X44278Y149757D01*
X44048Y149724D01*
X43786Y149790D01*
X43589Y149954D01*
X43458Y150151D01*
X43425Y150381D01*
X43458Y150610D01*
X43589Y150807D01*
X43786Y150971D01*
X44048Y151037D01*
X44278Y151004D01*
X44442Y150938D01*
X44606Y150807D01*
G01X8189Y145512D02*
Y147480D01*
X6975Y146070D01*
X8615D01*
G01X9633Y145906D02*
X9830Y145676D01*
X10092Y145544D01*
X10387Y145512D01*
X10650Y145544D01*
X10912Y145709D01*
X11076Y145906D01*
X11109Y146102D01*
X11043Y146332D01*
X10814Y146496D01*
X10584Y146562D01*
X10289D01*
G01X10584D02*
X10781Y146660D01*
X10945Y146824D01*
X11011Y147021D01*
X10945Y147218D01*
X10781Y147382D01*
X10485Y147480D01*
X10190Y147448D01*
X9895Y147316D01*
G01X12913Y145512D02*
Y147480D01*
X12520Y147087D01*
G01Y145512D02*
X13307D01*
G01X15735Y146562D02*
X15866Y146660D01*
X15965Y146824D01*
X16030Y147054D01*
X15965Y147251D01*
X15833Y147382D01*
X15604Y147480D01*
X14718D01*
Y145512D01*
X15800D01*
X16030Y145643D01*
X16161Y145840D01*
X16227Y146070D01*
X16161Y146299D01*
X15965Y146496D01*
X15735Y146562D01*
X14718D01*
G01X19934Y145512D02*
Y147480D01*
X20722D01*
X20984Y147382D01*
X21181Y147152D01*
X21247Y146890D01*
X21181Y146627D01*
X21017Y146430D01*
X20722Y146332D01*
X19934D01*
G01X23150Y145512D02*
Y147480D01*
X22756Y147087D01*
G01Y145512D02*
X23543D01*
G01X24987D02*
Y147480D01*
X25643D01*
X25906Y147382D01*
X26102Y147251D01*
X26267Y147054D01*
X26398Y146824D01*
X26430Y146496D01*
X26398Y146168D01*
X26267Y145938D01*
X26102Y145741D01*
X25906Y145610D01*
X25643Y145512D01*
X24987D01*
G01X28989Y147316D02*
X28793Y147415D01*
X28563Y147480D01*
X28300D01*
X28005Y147382D01*
X27776Y147218D01*
X27611Y147021D01*
X27480Y146693D01*
X27448Y146398D01*
X27513Y146102D01*
X27611Y145906D01*
X27808Y145709D01*
X28038Y145578D01*
X28268Y145512D01*
X28497D01*
X28727Y145578D01*
X28924Y145676D01*
X29088Y145807D01*
G01X31483Y145512D02*
X30170D01*
Y147480D01*
X31483D01*
G01X30958Y146529D02*
X30170D01*
G01X35322Y147152D02*
X35519Y147349D01*
X35748Y147448D01*
X36011Y147480D01*
X36339Y147415D01*
X36568Y147251D01*
X36634Y147054D01*
X36601Y146857D01*
X36470Y146693D01*
X35814Y146365D01*
X35519Y146135D01*
X35322Y145807D01*
X35256Y145512D01*
X36634D01*
G01X38504Y147480D02*
X38241Y147415D01*
X38044Y147251D01*
X37913Y147054D01*
X37815Y146791D01*
X37782Y146496D01*
X37815Y146201D01*
X37913Y145938D01*
X38044Y145741D01*
X38241Y145578D01*
X38504Y145512D01*
X38767Y145578D01*
X38963Y145741D01*
X39094Y145938D01*
X39193Y146201D01*
X39226Y146496D01*
X39193Y146791D01*
X39094Y147054D01*
X38963Y147251D01*
X38767Y147415D01*
X38504Y147480D01*
G01X40440Y147152D02*
X40637Y147349D01*
X40866Y147448D01*
X41129Y147480D01*
X41457Y147415D01*
X41686Y147251D01*
X41752Y147054D01*
X41719Y146857D01*
X41588Y146693D01*
X40932Y146365D01*
X40637Y146135D01*
X40440Y145807D01*
X40374Y145512D01*
X41752D01*
G01X42900Y145807D02*
X43097Y145643D01*
X43327Y145544D01*
X43622Y145512D01*
X43917Y145578D01*
X44147Y145709D01*
X44311Y145938D01*
X44344Y146201D01*
X44278Y146463D01*
X44114Y146627D01*
X43885Y146759D01*
X43655Y146791D01*
X43425Y146759D01*
X43130Y146627D01*
X43228Y147480D01*
X44114D01*
G01X45755Y146168D02*
X46607D01*
G01X48117Y147152D02*
X48314Y147349D01*
X48543Y147448D01*
X48806Y147480D01*
X49134Y147415D01*
X49363Y147251D01*
X49429Y147054D01*
X49396Y146857D01*
X49265Y146693D01*
X48609Y146365D01*
X48314Y146135D01*
X48117Y145807D01*
X48051Y145512D01*
X49429D01*
G01X51299Y147480D02*
X51037Y147415D01*
X50840Y147251D01*
X50709Y147054D01*
X50610Y146791D01*
X50578Y146496D01*
X50610Y146201D01*
X50709Y145938D01*
X50840Y145741D01*
X51037Y145578D01*
X51299Y145512D01*
X51562Y145578D01*
X51759Y145741D01*
X51890Y145938D01*
X51988Y146201D01*
X52021Y146496D01*
X51988Y146791D01*
X51890Y147054D01*
X51759Y147251D01*
X51562Y147415D01*
X51299Y147480D01*
G01X53235Y147152D02*
X53432Y147349D01*
X53661Y147448D01*
X53924Y147480D01*
X54252Y147415D01*
X54481Y147251D01*
X54547Y147054D01*
X54515Y146857D01*
X54383Y146693D01*
X53727Y146365D01*
X53432Y146135D01*
X53235Y145807D01*
X53169Y145512D01*
X54547D01*
G01X55794Y146332D02*
X56024Y146562D01*
X56220Y146693D01*
X56483Y146759D01*
X56713Y146693D01*
X56877Y146562D01*
X57008Y146365D01*
X57041Y146135D01*
X57008Y145938D01*
X56877Y145741D01*
X56680Y145578D01*
X56450Y145512D01*
X56188Y145578D01*
X55958Y145774D01*
X55827Y146070D01*
X55794Y146398D01*
X55859Y146824D01*
X55958Y147054D01*
X56122Y147283D01*
X56352Y147448D01*
X56581Y147480D01*
X56811Y147415D01*
X56975Y147251D01*
G01X16306Y31024D02*
X17126Y29055D01*
X17946Y31024D01*
G01X20407Y30859D02*
X20210Y30958D01*
X19980Y31024D01*
X19718D01*
X19422Y30925D01*
X19193Y30761D01*
X19029Y30564D01*
X18898Y30236D01*
X18865Y29941D01*
X18930Y29646D01*
X19029Y29449D01*
X19226Y29252D01*
X19456Y29121D01*
X19685Y29055D01*
X19915D01*
X20144Y29121D01*
X20341Y29219D01*
X20505Y29350D01*
G01X22966Y30859D02*
X22769Y30958D01*
X22539Y31024D01*
X22277D01*
X21981Y30925D01*
X21752Y30761D01*
X21588Y30564D01*
X21457Y30236D01*
X21424Y29941D01*
X21489Y29646D01*
X21588Y29449D01*
X21785Y29252D01*
X22015Y29121D01*
X22244Y29055D01*
X22474D01*
X22704Y29121D01*
X22900Y29219D01*
X23064Y29350D01*
G01X24442Y29711D02*
X25230D01*
G01X24803Y30138D02*
Y29285D01*
G01X25131Y58701D02*
Y60669D01*
X25952D01*
X26214Y60571D01*
X26378Y60440D01*
X26444Y60177D01*
X26378Y59915D01*
X26181Y59751D01*
X25952Y59652D01*
X25131D01*
G01X25952D02*
X26444Y58701D01*
G01X28346D02*
Y60669D01*
X27953Y60276D01*
G01Y58701D02*
X28740D01*
G01X30184Y59094D02*
X30381Y58865D01*
X30643Y58733D01*
X30938Y58701D01*
X31201Y58733D01*
X31463Y58898D01*
X31627Y59094D01*
X31660Y59291D01*
X31594Y59521D01*
X31365Y59685D01*
X31135Y59751D01*
X30840D01*
G01X31135D02*
X31332Y59849D01*
X31496Y60013D01*
X31562Y60210D01*
X31496Y60407D01*
X31332Y60571D01*
X31037Y60669D01*
X30741Y60637D01*
X30446Y60505D01*
G01X19915Y63425D02*
Y65394D01*
X20735D01*
X20997Y65295D01*
X21161Y65164D01*
X21227Y64902D01*
X21161Y64639D01*
X20965Y64475D01*
X20735Y64377D01*
X19915D01*
G01X20735D02*
X21227Y63425D01*
G01X22507Y64245D02*
X22736Y64475D01*
X22933Y64606D01*
X23196Y64672D01*
X23425Y64606D01*
X23589Y64475D01*
X23720Y64278D01*
X23753Y64048D01*
X23720Y63852D01*
X23589Y63655D01*
X23393Y63491D01*
X23163Y63425D01*
X22900Y63491D01*
X22670Y63688D01*
X22539Y63983D01*
X22507Y64311D01*
X22572Y64737D01*
X22670Y64967D01*
X22835Y65197D01*
X23064Y65361D01*
X23294Y65394D01*
X23524Y65328D01*
X23688Y65164D01*
G01X20952Y49094D02*
Y51063D01*
X21607D01*
X21870Y50965D01*
X22067Y50833D01*
X22231Y50637D01*
X22362Y50407D01*
X22395Y50079D01*
X22362Y49751D01*
X22231Y49521D01*
X22067Y49324D01*
X21870Y49193D01*
X21607Y49094D01*
X20952D01*
G01X24232D02*
Y51063D01*
X23839Y50669D01*
G01Y49094D02*
X24626D01*
G01X34928Y49567D02*
Y51535D01*
X35584D01*
X35846Y51437D01*
X36043Y51306D01*
X36207Y51109D01*
X36339Y50879D01*
X36371Y50551D01*
X36339Y50223D01*
X36207Y49993D01*
X36043Y49796D01*
X35846Y49665D01*
X35584Y49567D01*
X34928D01*
G01X37585Y51207D02*
X37782Y51404D01*
X38012Y51503D01*
X38274Y51535D01*
X38602Y51470D01*
X38832Y51306D01*
X38898Y51109D01*
X38865Y50912D01*
X38733Y50748D01*
X38078Y50420D01*
X37782Y50190D01*
X37585Y49862D01*
X37520Y49567D01*
X38898D01*
G01X24094Y81220D02*
X23832Y81253D01*
X23602Y81385D01*
X23406Y81581D01*
X23274Y81811D01*
X23209Y82074D01*
Y82336D01*
X23274Y82598D01*
X23406Y82828D01*
X23602Y83025D01*
X23832Y83156D01*
X24094Y83189D01*
X24357Y83156D01*
X24587Y83025D01*
X24783Y82828D01*
X24915Y82598D01*
X24980Y82336D01*
Y82074D01*
X24915Y81811D01*
X24783Y81581D01*
X24587Y81385D01*
X24357Y81253D01*
X24094Y81220D01*
G01X24357Y81745D02*
X24751Y81220D01*
G01X26654D02*
Y83189D01*
X26260Y82795D01*
G01Y81220D02*
X27047D01*
G01X12119Y108071D02*
Y110039D01*
X12940D01*
X13202Y109941D01*
X13366Y109810D01*
X13432Y109547D01*
X13366Y109285D01*
X13169Y109121D01*
X12940Y109022D01*
X12119D01*
G01X12940D02*
X13432Y108071D01*
G01X15269D02*
X15335Y108497D01*
X15433Y108858D01*
X15564Y109186D01*
X15728Y109547D01*
X15991Y110039D01*
X14678D01*
G01X20440Y115827D02*
Y114416D01*
X20571Y114121D01*
X20833Y113924D01*
X21161Y113858D01*
X21489Y113924D01*
X21752Y114121D01*
X21883Y114416D01*
Y115827D01*
G01X23720Y113858D02*
Y115827D01*
X23327Y115433D01*
G01Y113858D02*
X24114D01*
G01X27920Y129764D02*
Y128353D01*
X28051Y128058D01*
X28314Y127861D01*
X28642Y127795D01*
X28970Y127861D01*
X29232Y128058D01*
X29363Y128353D01*
Y129764D01*
G01X30578Y129436D02*
X30774Y129633D01*
X31004Y129731D01*
X31267Y129764D01*
X31594Y129698D01*
X31824Y129534D01*
X31890Y129337D01*
X31857Y129141D01*
X31726Y128976D01*
X31070Y128648D01*
X30774Y128419D01*
X30578Y128091D01*
X30512Y127795D01*
X31890D01*
G01X38504Y111024D02*
X38241Y111056D01*
X38012Y111188D01*
X37815Y111385D01*
X37684Y111614D01*
X37618Y111877D01*
Y112139D01*
X37684Y112402D01*
X37815Y112631D01*
X38012Y112828D01*
X38241Y112959D01*
X38504Y112992D01*
X38767Y112959D01*
X38996Y112828D01*
X39193Y112631D01*
X39324Y112402D01*
X39390Y112139D01*
Y111877D01*
X39324Y111614D01*
X39193Y111385D01*
X38996Y111188D01*
X38767Y111056D01*
X38504Y111024D01*
G01X38767Y111548D02*
X39160Y111024D01*
G01X40341Y111417D02*
X40538Y111188D01*
X40800Y111056D01*
X41096Y111024D01*
X41358Y111056D01*
X41621Y111220D01*
X41785Y111417D01*
X41818Y111614D01*
X41752Y111844D01*
X41522Y112008D01*
X41293Y112074D01*
X40997D01*
G01X41293D02*
X41489Y112172D01*
X41654Y112336D01*
X41719Y112533D01*
X41654Y112730D01*
X41489Y112894D01*
X41194Y112992D01*
X40899Y112959D01*
X40604Y112828D01*
G01X55682Y38858D02*
Y40827D01*
X56503D01*
X56765Y40728D01*
X56929Y40597D01*
X56995Y40335D01*
X56929Y40072D01*
X56732Y39908D01*
X56503Y39810D01*
X55682D01*
G01X56503D02*
X56995Y38858D01*
G01X58898D02*
Y40827D01*
X58504Y40433D01*
G01Y38858D02*
X59291D01*
G01X60899Y39088D02*
X61129Y38924D01*
X61391Y38858D01*
X61654Y38924D01*
X61883Y39121D01*
X62047Y39416D01*
X62113Y39711D01*
Y40072D01*
X62047Y40367D01*
X61883Y40630D01*
X61686Y40761D01*
X61457Y40827D01*
X61194Y40761D01*
X60997Y40630D01*
X60866Y40433D01*
X60800Y40170D01*
X60866Y39941D01*
X61030Y39711D01*
X61227Y39580D01*
X61457Y39547D01*
X61719Y39613D01*
X61916Y39777D01*
X62113Y40072D01*
G01X47015Y30906D02*
X47835Y28937D01*
X48655Y30906D01*
G01X51115Y30741D02*
X50919Y30840D01*
X50689Y30906D01*
X50426D01*
X50131Y30807D01*
X49902Y30643D01*
X49737Y30446D01*
X49606Y30118D01*
X49574Y29823D01*
X49639Y29528D01*
X49737Y29331D01*
X49934Y29134D01*
X50164Y29003D01*
X50394Y28937D01*
X50623D01*
X50853Y29003D01*
X51050Y29101D01*
X51214Y29232D01*
G01X53674Y30741D02*
X53478Y30840D01*
X53248Y30906D01*
X52985D01*
X52690Y30807D01*
X52461Y30643D01*
X52296Y30446D01*
X52165Y30118D01*
X52133Y29823D01*
X52198Y29528D01*
X52296Y29331D01*
X52493Y29134D01*
X52723Y29003D01*
X52953Y28937D01*
X53182D01*
X53412Y29003D01*
X53609Y29101D01*
X53773Y29232D01*
G01X55085Y29593D02*
X55938D01*
G01X43753Y57992D02*
Y59961D01*
X44574D01*
X44836Y59862D01*
X45000Y59731D01*
X45066Y59469D01*
X45000Y59206D01*
X44803Y59042D01*
X44574Y58944D01*
X43753D01*
G01X44574D02*
X45066Y57992D01*
G01X46969D02*
Y59961D01*
X46575Y59567D01*
G01Y57992D02*
X47362D01*
G01X49462D02*
X49528Y58419D01*
X49626Y58780D01*
X49757Y59107D01*
X49921Y59469D01*
X50184Y59961D01*
X48871D01*
G01X68261Y64245D02*
X68064Y64344D01*
X67835Y64409D01*
X67572D01*
X67277Y64311D01*
X67047Y64147D01*
X66883Y63950D01*
X66752Y63622D01*
X66719Y63327D01*
X66785Y63031D01*
X66883Y62835D01*
X67080Y62638D01*
X67310Y62507D01*
X67539Y62441D01*
X67769D01*
X67999Y62507D01*
X68196Y62605D01*
X68359Y62736D01*
G01X70098Y62441D02*
Y64409D01*
X69705Y64016D01*
G01Y62441D02*
X70492D01*
G01X43163Y73622D02*
Y75591D01*
X43983D01*
X44245Y75492D01*
X44409Y75361D01*
X44475Y75098D01*
X44409Y74836D01*
X44213Y74672D01*
X43983Y74574D01*
X43163D01*
G01X43983D02*
X44475Y73622D01*
G01X46378D02*
Y75591D01*
X45984Y75197D01*
G01Y73622D02*
X46772D01*
G01X48314Y75263D02*
X48511Y75459D01*
X48740Y75558D01*
X49003Y75591D01*
X49331Y75525D01*
X49560Y75361D01*
X49626Y75164D01*
X49593Y74967D01*
X49462Y74803D01*
X48806Y74475D01*
X48511Y74245D01*
X48314Y73917D01*
X48248Y73622D01*
X49626D01*
G01X69285Y73780D02*
Y75748D01*
X70105D01*
X70367Y75650D01*
X70531Y75519D01*
X70597Y75256D01*
X70531Y74993D01*
X70335Y74830D01*
X70105Y74731D01*
X69285D01*
G01X70105D02*
X70597Y73780D01*
G01X72500D02*
X72730Y73812D01*
X72992Y73911D01*
X73156Y74075D01*
X73222Y74304D01*
X73156Y74534D01*
X72959Y74731D01*
X72664Y74830D01*
X72336D01*
X72139Y74895D01*
X71975Y75059D01*
X71909Y75289D01*
X72008Y75519D01*
X72237Y75682D01*
X72500Y75748D01*
X72763Y75682D01*
X72992Y75519D01*
X73091Y75289D01*
X73025Y75059D01*
X72861Y74895D01*
X72664Y74830D01*
X72336D01*
X72041Y74731D01*
X71844Y74534D01*
X71778Y74304D01*
X71844Y74075D01*
X72008Y73911D01*
X72270Y73812D01*
X72500Y73780D01*
G01X57008Y92835D02*
X56745Y92867D01*
X56516Y92999D01*
X56319Y93196D01*
X56188Y93425D01*
X56122Y93688D01*
Y93950D01*
X56188Y94213D01*
X56319Y94442D01*
X56516Y94639D01*
X56745Y94770D01*
X57008Y94803D01*
X57270Y94770D01*
X57500Y94639D01*
X57697Y94442D01*
X57828Y94213D01*
X57894Y93950D01*
Y93688D01*
X57828Y93425D01*
X57697Y93196D01*
X57500Y92999D01*
X57270Y92867D01*
X57008Y92835D01*
G01X57270Y93359D02*
X57664Y92835D01*
G01X58944Y93655D02*
X59173Y93885D01*
X59370Y94016D01*
X59633Y94081D01*
X59862Y94016D01*
X60026Y93885D01*
X60157Y93688D01*
X60190Y93458D01*
X60157Y93261D01*
X60026Y93064D01*
X59830Y92900D01*
X59600Y92835D01*
X59337Y92900D01*
X59107Y93097D01*
X58976Y93393D01*
X58944Y93720D01*
X59009Y94147D01*
X59107Y94377D01*
X59272Y94606D01*
X59501Y94770D01*
X59731Y94803D01*
X59961Y94737D01*
X60125Y94574D01*
G01X70033Y120315D02*
Y122283D01*
X70853D01*
X71115Y122185D01*
X71280Y122054D01*
X71345Y121791D01*
X71280Y121529D01*
X71083Y121365D01*
X70853Y121267D01*
X70033D01*
G01X70853D02*
X71345Y120315D01*
G01X72526Y120709D02*
X72723Y120479D01*
X72985Y120348D01*
X73281Y120315D01*
X73543Y120348D01*
X73806Y120512D01*
X73970Y120709D01*
X74003Y120906D01*
X73937Y121135D01*
X73707Y121299D01*
X73478Y121365D01*
X73182D01*
G01X73478D02*
X73674Y121463D01*
X73839Y121627D01*
X73904Y121824D01*
X73839Y122021D01*
X73674Y122185D01*
X73379Y122283D01*
X73084Y122251D01*
X72789Y122119D01*
G01X47985Y122087D02*
Y124055D01*
X48806D01*
X49068Y123957D01*
X49232Y123826D01*
X49298Y123563D01*
X49232Y123300D01*
X49035Y123137D01*
X48806Y123038D01*
X47985D01*
G01X48806D02*
X49298Y122087D01*
G01X51594D02*
Y124055D01*
X50381Y122644D01*
X52021D01*
G01X62047Y111575D02*
X61785Y111607D01*
X61555Y111739D01*
X61358Y111936D01*
X61227Y112165D01*
X61161Y112428D01*
Y112690D01*
X61227Y112953D01*
X61358Y113182D01*
X61555Y113379D01*
X61785Y113511D01*
X62047Y113543D01*
X62310Y113511D01*
X62539Y113379D01*
X62736Y113182D01*
X62867Y112953D01*
X62933Y112690D01*
Y112428D01*
X62867Y112165D01*
X62736Y111936D01*
X62539Y111739D01*
X62310Y111607D01*
X62047Y111575D01*
G01X62310Y112100D02*
X62704Y111575D01*
G01X63983Y113215D02*
X64180Y113412D01*
X64409Y113511D01*
X64672Y113543D01*
X65000Y113478D01*
X65230Y113314D01*
X65295Y113117D01*
X65263Y112920D01*
X65131Y112756D01*
X64475Y112428D01*
X64180Y112198D01*
X63983Y111870D01*
X63917Y111575D01*
X65295D01*
G01X56922Y138307D02*
Y140276D01*
X57743D01*
X58005Y140177D01*
X58169Y140046D01*
X58235Y139783D01*
X58169Y139521D01*
X57972Y139357D01*
X57743Y139259D01*
X56922D01*
G01X57743D02*
X58235Y138307D01*
G01X59515Y139948D02*
X59711Y140144D01*
X59941Y140243D01*
X60204Y140276D01*
X60531Y140210D01*
X60761Y140046D01*
X60827Y139849D01*
X60794Y139652D01*
X60663Y139488D01*
X60007Y139160D01*
X59711Y138930D01*
X59515Y138602D01*
X59449Y138307D01*
X60827D01*
G01X95170Y31850D02*
Y33819D01*
X95991D01*
X96253Y33720D01*
X96417Y33589D01*
X96483Y33327D01*
X96417Y33064D01*
X96220Y32900D01*
X95991Y32802D01*
X95170D01*
G01X95991D02*
X96483Y31850D01*
G01X98386D02*
Y33819D01*
X97992Y33425D01*
G01Y31850D02*
X98780D01*
G01X100223Y32146D02*
X100420Y31981D01*
X100650Y31883D01*
X100945Y31850D01*
X101240Y31916D01*
X101470Y32047D01*
X101634Y32277D01*
X101667Y32539D01*
X101601Y32802D01*
X101437Y32966D01*
X101207Y33097D01*
X100978Y33130D01*
X100748Y33097D01*
X100453Y32966D01*
X100551Y33819D01*
X101437D01*
G01X71332Y35039D02*
Y37008D01*
X72152D01*
X72415Y36909D01*
X72579Y36778D01*
X72644Y36516D01*
X72579Y36253D01*
X72382Y36089D01*
X72152Y35991D01*
X71332D01*
G01X72152D02*
X72644Y35039D01*
G01X74547D02*
Y37008D01*
X74154Y36614D01*
G01Y35039D02*
X74941D01*
G01X76883Y32717D02*
Y34685D01*
X77704D01*
X77966Y34587D01*
X78130Y34456D01*
X78196Y34193D01*
X78130Y33930D01*
X77933Y33767D01*
X77704Y33668D01*
X76883D01*
G01X77704D02*
X78196Y32717D01*
G01X79377Y33012D02*
X79574Y32848D01*
X79803Y32749D01*
X80098Y32717D01*
X80394Y32782D01*
X80623Y32913D01*
X80787Y33143D01*
X80820Y33406D01*
X80755Y33668D01*
X80591Y33832D01*
X80361Y33963D01*
X80131Y33996D01*
X79902Y33963D01*
X79606Y33832D01*
X79705Y34685D01*
X80591D01*
G01X74580Y28622D02*
Y30591D01*
X75367D01*
X75630Y30492D01*
X75827Y30263D01*
X75893Y30000D01*
X75827Y29737D01*
X75663Y29541D01*
X75367Y29442D01*
X74580D01*
G01X77795Y28622D02*
Y30591D01*
X77402Y30197D01*
G01Y28622D02*
X78189D01*
G01X90899Y63930D02*
X90702Y64029D01*
X90472Y64094D01*
X90210D01*
X89915Y63996D01*
X89685Y63832D01*
X89521Y63635D01*
X89390Y63307D01*
X89357Y63012D01*
X89422Y62717D01*
X89521Y62520D01*
X89718Y62323D01*
X89948Y62192D01*
X90177Y62126D01*
X90407D01*
X90637Y62192D01*
X90833Y62290D01*
X90997Y62421D01*
G01X92113Y63767D02*
X92310Y63963D01*
X92539Y64062D01*
X92802Y64094D01*
X93130Y64029D01*
X93359Y63865D01*
X93425Y63668D01*
X93393Y63471D01*
X93261Y63307D01*
X92605Y62979D01*
X92310Y62749D01*
X92113Y62421D01*
X92047Y62126D01*
X93425D01*
G01X79285Y64245D02*
X79088Y64344D01*
X78858Y64409D01*
X78596D01*
X78300Y64311D01*
X78071Y64147D01*
X77907Y63950D01*
X77776Y63622D01*
X77743Y63327D01*
X77808Y63031D01*
X77907Y62835D01*
X78104Y62638D01*
X78333Y62507D01*
X78563Y62441D01*
X78793D01*
X79022Y62507D01*
X79219Y62605D01*
X79383Y62736D01*
G01X80400Y62835D02*
X80597Y62605D01*
X80859Y62474D01*
X81155Y62441D01*
X81417Y62474D01*
X81680Y62638D01*
X81844Y62835D01*
X81877Y63031D01*
X81811Y63261D01*
X81581Y63425D01*
X81352Y63491D01*
X81056D01*
G01X81352D02*
X81548Y63589D01*
X81713Y63753D01*
X81778Y63950D01*
X81713Y64147D01*
X81548Y64311D01*
X81253Y64409D01*
X80958Y64377D01*
X80663Y64245D01*
G01X96135Y57237D02*
X95938Y57336D01*
X95709Y57402D01*
X95446D01*
X95151Y57303D01*
X94921Y57139D01*
X94757Y56942D01*
X94626Y56614D01*
X94593Y56319D01*
X94659Y56024D01*
X94757Y55827D01*
X94954Y55630D01*
X95184Y55499D01*
X95413Y55433D01*
X95643D01*
X95873Y55499D01*
X96070Y55597D01*
X96233Y55728D01*
G01X97251D02*
X97448Y55564D01*
X97677Y55466D01*
X97972Y55433D01*
X98268Y55499D01*
X98497Y55630D01*
X98661Y55859D01*
X98694Y56122D01*
X98629Y56385D01*
X98465Y56548D01*
X98235Y56680D01*
X98005Y56713D01*
X97776Y56680D01*
X97480Y56548D01*
X97579Y57402D01*
X98465D01*
G01X94291Y75709D02*
X94029Y75741D01*
X93799Y75873D01*
X93602Y76070D01*
X93471Y76299D01*
X93406Y76562D01*
Y76824D01*
X93471Y77087D01*
X93602Y77316D01*
X93799Y77513D01*
X94029Y77644D01*
X94291Y77677D01*
X94554Y77644D01*
X94783Y77513D01*
X94980Y77316D01*
X95111Y77087D01*
X95177Y76824D01*
Y76562D01*
X95111Y76299D01*
X94980Y76070D01*
X94783Y75873D01*
X94554Y75741D01*
X94291Y75709D01*
G01X94554Y76233D02*
X94948Y75709D01*
G01X96129Y76004D02*
X96326Y75840D01*
X96555Y75741D01*
X96850Y75709D01*
X97146Y75774D01*
X97375Y75906D01*
X97539Y76135D01*
X97572Y76398D01*
X97507Y76660D01*
X97343Y76824D01*
X97113Y76956D01*
X96883Y76988D01*
X96654Y76956D01*
X96358Y76824D01*
X96457Y77677D01*
X97343D01*
G01X77362Y99409D02*
X77100Y99442D01*
X76870Y99574D01*
X76673Y99770D01*
X76542Y100000D01*
X76476Y100263D01*
Y100525D01*
X76542Y100787D01*
X76673Y101017D01*
X76870Y101214D01*
X77100Y101345D01*
X77362Y101378D01*
X77625Y101345D01*
X77854Y101214D01*
X78051Y101017D01*
X78182Y100787D01*
X78248Y100525D01*
Y100263D01*
X78182Y100000D01*
X78051Y99770D01*
X77854Y99574D01*
X77625Y99442D01*
X77362Y99409D01*
G01X77625Y99934D02*
X78019Y99409D01*
G01X80315D02*
Y101378D01*
X79101Y99967D01*
X80741D01*
G01X88733Y115118D02*
Y117087D01*
X89554D01*
X89816Y116988D01*
X89980Y116857D01*
X90046Y116594D01*
X89980Y116332D01*
X89783Y116168D01*
X89554Y116070D01*
X88733D01*
G01X89554D02*
X90046Y115118D01*
G01X91391Y115348D02*
X91621Y115184D01*
X91883Y115118D01*
X92146Y115184D01*
X92375Y115381D01*
X92539Y115676D01*
X92605Y115971D01*
Y116332D01*
X92539Y116627D01*
X92375Y116890D01*
X92178Y117021D01*
X91949Y117087D01*
X91686Y117021D01*
X91489Y116890D01*
X91358Y116693D01*
X91293Y116430D01*
X91358Y116201D01*
X91522Y115971D01*
X91719Y115840D01*
X91949Y115807D01*
X92211Y115873D01*
X92408Y116037D01*
X92605Y116332D01*
G01X84107Y139094D02*
Y141063D01*
X84928D01*
X85190Y140965D01*
X85354Y140833D01*
X85420Y140571D01*
X85354Y140308D01*
X85157Y140144D01*
X84928Y140046D01*
X84107D01*
G01X84928D02*
X85420Y139094D01*
G01X87323D02*
Y141063D01*
X86929Y140669D01*
G01Y139094D02*
X87717D01*
G01X89882D02*
X90111Y139127D01*
X90374Y139226D01*
X90538Y139390D01*
X90604Y139619D01*
X90538Y139849D01*
X90341Y140046D01*
X90046Y140144D01*
X89718D01*
X89521Y140210D01*
X89357Y140374D01*
X89291Y140604D01*
X89390Y140833D01*
X89619Y140997D01*
X89882Y141063D01*
X90144Y140997D01*
X90374Y140833D01*
X90472Y140604D01*
X90407Y140374D01*
X90243Y140210D01*
X90046Y140144D01*
X89718D01*
X89422Y140046D01*
X89226Y139849D01*
X89160Y139619D01*
X89226Y139390D01*
X89390Y139226D01*
X89652Y139127D01*
X89882Y139094D01*
G01X107966Y28346D02*
Y30315D01*
X108753D01*
X109016Y30217D01*
X109213Y29987D01*
X109278Y29724D01*
X109213Y29462D01*
X109048Y29265D01*
X108753Y29167D01*
X107966D01*
G01X111575Y28346D02*
Y30315D01*
X110361Y28904D01*
X112001D01*
G01X125131Y41772D02*
Y43740D01*
X125952D01*
X126214Y43642D01*
X126378Y43511D01*
X126444Y43248D01*
X126378Y42985D01*
X126181Y42822D01*
X125952Y42723D01*
X125131D01*
G01X125952D02*
X126444Y41772D01*
G01X128346D02*
Y43740D01*
X127953Y43346D01*
G01Y41772D02*
X128740D01*
G01X130906D02*
Y43740D01*
X130512Y43346D01*
G01Y41772D02*
X131299D01*
G01X126056Y57119D02*
X125859Y57218D01*
X125630Y57283D01*
X125367D01*
X125072Y57185D01*
X124843Y57021D01*
X124678Y56824D01*
X124547Y56496D01*
X124515Y56201D01*
X124580Y55906D01*
X124678Y55709D01*
X124875Y55512D01*
X125105Y55381D01*
X125335Y55315D01*
X125564D01*
X125794Y55381D01*
X125991Y55479D01*
X126155Y55610D01*
G01X127270Y56135D02*
X127500Y56365D01*
X127697Y56496D01*
X127959Y56562D01*
X128189Y56496D01*
X128353Y56365D01*
X128484Y56168D01*
X128517Y55938D01*
X128484Y55741D01*
X128353Y55544D01*
X128156Y55381D01*
X127926Y55315D01*
X127664Y55381D01*
X127434Y55578D01*
X127303Y55873D01*
X127270Y56201D01*
X127336Y56627D01*
X127434Y56857D01*
X127598Y57087D01*
X127828Y57251D01*
X128058Y57283D01*
X128287Y57218D01*
X128452Y57054D01*
G01X111844Y61922D02*
X111647Y62021D01*
X111417Y62087D01*
X111155D01*
X110859Y61988D01*
X110630Y61824D01*
X110466Y61627D01*
X110335Y61299D01*
X110302Y61004D01*
X110367Y60709D01*
X110466Y60512D01*
X110663Y60315D01*
X110893Y60184D01*
X111122Y60118D01*
X111352D01*
X111581Y60184D01*
X111778Y60282D01*
X111942Y60413D01*
G01X113615Y60118D02*
X113681Y60544D01*
X113780Y60906D01*
X113911Y61233D01*
X114075Y61594D01*
X114337Y62087D01*
X113025D01*
G01X117060Y89606D02*
Y91575D01*
X117881D01*
X118143Y91476D01*
X118307Y91345D01*
X118373Y91083D01*
X118307Y90820D01*
X118110Y90656D01*
X117881Y90558D01*
X117060D01*
G01X117881D02*
X118373Y89606D01*
G01X120276D02*
Y91575D01*
X119882Y91181D01*
G01Y89606D02*
X120669D01*
G01X122211Y90426D02*
X122441Y90656D01*
X122638Y90787D01*
X122900Y90853D01*
X123130Y90787D01*
X123294Y90656D01*
X123425Y90459D01*
X123458Y90230D01*
X123425Y90033D01*
X123294Y89836D01*
X123097Y89672D01*
X122867Y89606D01*
X122605Y89672D01*
X122375Y89869D01*
X122244Y90164D01*
X122211Y90492D01*
X122277Y90919D01*
X122375Y91148D01*
X122539Y91378D01*
X122769Y91542D01*
X122999Y91575D01*
X123228Y91509D01*
X123393Y91345D01*
G01X117756Y80433D02*
X117493Y80466D01*
X117264Y80597D01*
X117067Y80794D01*
X116936Y81024D01*
X116870Y81286D01*
Y81548D01*
X116936Y81811D01*
X117067Y82041D01*
X117264Y82237D01*
X117493Y82369D01*
X117756Y82402D01*
X118019Y82369D01*
X118248Y82237D01*
X118445Y82041D01*
X118576Y81811D01*
X118642Y81548D01*
Y81286D01*
X118576Y81024D01*
X118445Y80794D01*
X118248Y80597D01*
X118019Y80466D01*
X117756Y80433D01*
G01X118019Y80958D02*
X118412Y80433D01*
G01X120249D02*
X120315Y80859D01*
X120413Y81220D01*
X120544Y81548D01*
X120709Y81909D01*
X120971Y82402D01*
X119659D01*
G01X110564Y126339D02*
Y128307D01*
X111352D01*
X111614Y128209D01*
X111811Y127979D01*
X111877Y127717D01*
X111811Y127454D01*
X111647Y127257D01*
X111352Y127159D01*
X110564D01*
G01X113156Y127979D02*
X113353Y128176D01*
X113583Y128274D01*
X113845Y128307D01*
X114173Y128241D01*
X114403Y128078D01*
X114469Y127881D01*
X114436Y127684D01*
X114304Y127520D01*
X113648Y127192D01*
X113353Y126962D01*
X113156Y126634D01*
X113091Y126339D01*
X114469D01*
G01X127001Y123891D02*
X126804Y123989D01*
X126575Y124055D01*
X126312D01*
X126017Y123957D01*
X125787Y123793D01*
X125623Y123596D01*
X125492Y123268D01*
X125459Y122972D01*
X125525Y122677D01*
X125623Y122480D01*
X125820Y122283D01*
X126050Y122152D01*
X126280Y122087D01*
X126509D01*
X126739Y122152D01*
X126936Y122251D01*
X127100Y122382D01*
G01X128839Y122087D02*
X129068Y122119D01*
X129331Y122218D01*
X129495Y122382D01*
X129560Y122611D01*
X129495Y122841D01*
X129298Y123038D01*
X129003Y123137D01*
X128674D01*
X128478Y123202D01*
X128314Y123366D01*
X128248Y123596D01*
X128346Y123826D01*
X128576Y123989D01*
X128839Y124055D01*
X129101Y123989D01*
X129331Y123826D01*
X129429Y123596D01*
X129363Y123366D01*
X129200Y123202D01*
X129003Y123137D01*
X128674D01*
X128379Y123038D01*
X128182Y122841D01*
X128117Y122611D01*
X128182Y122382D01*
X128346Y122218D01*
X128609Y122119D01*
X128839Y122087D01*
G01X121962Y117080D02*
X121765Y117178D01*
X121535Y117244D01*
X121273D01*
X120978Y117146D01*
X120748Y116981D01*
X120584Y116785D01*
X120453Y116457D01*
X120420Y116161D01*
X120485Y115866D01*
X120584Y115669D01*
X120781Y115472D01*
X121011Y115341D01*
X121240Y115276D01*
X121470D01*
X121700Y115341D01*
X121896Y115440D01*
X122060Y115571D01*
G01X123241Y115505D02*
X123471Y115341D01*
X123733Y115276D01*
X123996Y115341D01*
X124226Y115538D01*
X124390Y115833D01*
X124456Y116129D01*
Y116489D01*
X124390Y116785D01*
X124226Y117047D01*
X124029Y117178D01*
X123799Y117244D01*
X123537Y117178D01*
X123340Y117047D01*
X123209Y116850D01*
X123143Y116588D01*
X123209Y116358D01*
X123373Y116129D01*
X123570Y115997D01*
X123799Y115965D01*
X124062Y116030D01*
X124259Y116194D01*
X124456Y116489D01*
G01X107520Y115472D02*
X107257Y115505D01*
X107028Y115637D01*
X106831Y115833D01*
X106700Y116063D01*
X106634Y116326D01*
Y116588D01*
X106700Y116850D01*
X106831Y117080D01*
X107028Y117277D01*
X107257Y117408D01*
X107520Y117441D01*
X107782Y117408D01*
X108012Y117277D01*
X108209Y117080D01*
X108340Y116850D01*
X108406Y116588D01*
Y116326D01*
X108340Y116063D01*
X108209Y115833D01*
X108012Y115637D01*
X107782Y115505D01*
X107520Y115472D01*
G01X107782Y115997D02*
X108176Y115472D01*
G01X110079D02*
X110308Y115505D01*
X110571Y115604D01*
X110735Y115768D01*
X110800Y115997D01*
X110735Y116227D01*
X110538Y116424D01*
X110243Y116522D01*
X109915D01*
X109718Y116588D01*
X109554Y116752D01*
X109488Y116981D01*
X109587Y117211D01*
X109816Y117375D01*
X110079Y117441D01*
X110341Y117375D01*
X110571Y117211D01*
X110669Y116981D01*
X110604Y116752D01*
X110440Y116588D01*
X110243Y116522D01*
X109915D01*
X109619Y116424D01*
X109422Y116227D01*
X109357Y115997D01*
X109422Y115768D01*
X109587Y115604D01*
X109849Y115505D01*
X110079Y115472D01*
G01X129416Y139764D02*
Y138353D01*
X129547Y138058D01*
X129810Y137861D01*
X130138Y137795D01*
X130466Y137861D01*
X130728Y138058D01*
X130859Y138353D01*
Y139764D01*
G01X131975Y138189D02*
X132172Y137959D01*
X132434Y137828D01*
X132730Y137795D01*
X132992Y137828D01*
X133255Y137992D01*
X133419Y138189D01*
X133452Y138386D01*
X133386Y138615D01*
X133156Y138780D01*
X132926Y138845D01*
X132631D01*
G01X132926D02*
X133123Y138944D01*
X133287Y139107D01*
X133353Y139304D01*
X133287Y139501D01*
X133123Y139665D01*
X132828Y139764D01*
X132533Y139731D01*
X132237Y139600D01*
G01X133989Y38819D02*
Y40787D01*
X134810D01*
X135072Y40689D01*
X135236Y40558D01*
X135302Y40295D01*
X135236Y40033D01*
X135039Y39869D01*
X134810Y39770D01*
X133989D01*
G01X134810D02*
X135302Y38819D01*
G01X136581Y40459D02*
X136778Y40656D01*
X137008Y40755D01*
X137270Y40787D01*
X137598Y40722D01*
X137828Y40558D01*
X137894Y40361D01*
X137861Y40164D01*
X137730Y40000D01*
X137074Y39672D01*
X136778Y39442D01*
X136581Y39114D01*
X136516Y38819D01*
X137894D01*
G01X139764Y40787D02*
X139501Y40722D01*
X139304Y40558D01*
X139173Y40361D01*
X139075Y40098D01*
X139042Y39803D01*
X139075Y39508D01*
X139173Y39245D01*
X139304Y39048D01*
X139501Y38885D01*
X139764Y38819D01*
X140026Y38885D01*
X140223Y39048D01*
X140354Y39245D01*
X140453Y39508D01*
X140485Y39803D01*
X140453Y40098D01*
X140354Y40361D01*
X140223Y40558D01*
X140026Y40722D01*
X139764Y40787D01*
G01X133747Y25984D02*
X134567Y24016D01*
X135387Y25984D01*
G01X137126Y24016D02*
X136863Y24048D01*
X136634Y24180D01*
X136437Y24377D01*
X136306Y24606D01*
X136240Y24869D01*
Y25131D01*
X136306Y25394D01*
X136437Y25623D01*
X136634Y25820D01*
X136863Y25952D01*
X137126Y25984D01*
X137389Y25952D01*
X137618Y25820D01*
X137815Y25623D01*
X137946Y25394D01*
X138012Y25131D01*
Y24869D01*
X137946Y24606D01*
X137815Y24377D01*
X137618Y24180D01*
X137389Y24048D01*
X137126Y24016D01*
G01X138963Y25984D02*
Y24574D01*
X139094Y24278D01*
X139357Y24081D01*
X139685Y24016D01*
X140013Y24081D01*
X140276Y24278D01*
X140407Y24574D01*
Y25984D01*
G01X142244D02*
Y24016D01*
G01X141489Y25984D02*
X142999D01*
G01X137946Y52198D02*
X137749Y52296D01*
X137520Y52362D01*
X137257D01*
X136962Y52264D01*
X136732Y52100D01*
X136568Y51903D01*
X136437Y51575D01*
X136404Y51280D01*
X136470Y50984D01*
X136568Y50787D01*
X136765Y50591D01*
X136995Y50459D01*
X137224Y50394D01*
X137454D01*
X137684Y50459D01*
X137881Y50558D01*
X138044Y50689D01*
G01X140177Y50394D02*
Y52362D01*
X138963Y50952D01*
X140604D01*
G01X135525Y100512D02*
Y102480D01*
X136312D01*
X136575Y102382D01*
X136772Y102152D01*
X136837Y101890D01*
X136772Y101627D01*
X136607Y101430D01*
X136312Y101332D01*
X135525D01*
G01X138019Y100906D02*
X138215Y100676D01*
X138478Y100544D01*
X138773Y100512D01*
X139035Y100544D01*
X139298Y100709D01*
X139462Y100906D01*
X139495Y101102D01*
X139429Y101332D01*
X139200Y101496D01*
X138970Y101562D01*
X138674D01*
G01X138970D02*
X139167Y101660D01*
X139331Y101824D01*
X139396Y102021D01*
X139331Y102218D01*
X139167Y102382D01*
X138871Y102480D01*
X138576Y102448D01*
X138281Y102316D01*
G01X141391Y118858D02*
Y120827D01*
X142211D01*
X142474Y120728D01*
X142638Y120597D01*
X142704Y120335D01*
X142638Y120072D01*
X142441Y119908D01*
X142211Y119810D01*
X141391D01*
G01X142211D02*
X142704Y118858D01*
G01X144606D02*
Y120827D01*
X144213Y120433D01*
G01Y118858D02*
X145000D01*
G01X147559D02*
Y120827D01*
X146345Y119416D01*
X147985D01*
G01X133556Y133425D02*
Y135394D01*
X134377D01*
X134639Y135295D01*
X134803Y135164D01*
X134869Y134902D01*
X134803Y134639D01*
X134606Y134475D01*
X134377Y134377D01*
X133556D01*
G01X134377D02*
X134869Y133425D01*
G01X136772D02*
Y135394D01*
X136378Y135000D01*
G01Y133425D02*
X137165D01*
G01X139331Y135394D02*
X139068Y135328D01*
X138871Y135164D01*
X138740Y134967D01*
X138642Y134705D01*
X138609Y134409D01*
X138642Y134114D01*
X138740Y133852D01*
X138871Y133655D01*
X139068Y133491D01*
X139331Y133425D01*
X139593Y133491D01*
X139790Y133655D01*
X139921Y133852D01*
X140020Y134114D01*
X140052Y134409D01*
X140020Y134705D01*
X139921Y134967D01*
X139790Y135164D01*
X139593Y135328D01*
X139331Y135394D01*
G54D11*
G01X10827Y100394D02*
X6496D01*
G01X11437Y45945D02*
Y37677D01*
G01X19114Y45945D02*
Y37677D01*
G01X33327Y42992D02*
Y34724D01*
G01X38583Y60748D02*
X34252D01*
G01X13110Y59370D02*
X17441D01*
G01X41535Y99530D02*
X37205Y99535D01*
G01X36471Y72620D02*
X32141Y72622D01*
G01X30607Y79392D02*
X30600Y75061D01*
G01X38639Y79113D02*
X38632Y74782D01*
G01X32463Y89944D02*
X28133Y89946D01*
G01X40849Y89980D02*
X36519Y89982D01*
G01X27815Y98346D02*
Y106614D01*
G01X17146Y98780D02*
Y107047D01*
G01X35041Y101695D02*
Y106026D01*
G01X41811Y107562D02*
X37480Y107567D01*
G01X25315Y116161D02*
X33583D01*
G01X25591Y126319D02*
X33858D01*
G01X66594Y5984D02*
X86280D01*
Y7165D01*
G01X52362Y38858D02*
X48031D01*
G01X41004Y42992D02*
Y34724D01*
G01X66594Y25669D02*
X86280D01*
Y24488D01*
G01X67600Y55643D02*
X71930D01*
G01X49134Y66260D02*
Y70591D01*
G01X56024Y54724D02*
Y50394D01*
G01X65986Y88781D02*
Y93112D01*
G01X72756Y94648D02*
X68425Y94653D01*
G01X72480Y86617D02*
X68150Y86622D01*
G01X52404Y97325D02*
Y101656D01*
G01X69648Y97246D02*
Y101577D01*
G01X63503Y89702D02*
X63510Y85371D01*
G01X56861Y82249D02*
X61192Y82252D01*
G01X57123Y90281D02*
X61454Y90283D01*
G01X47013Y83767D02*
X47021Y79436D01*
G01X47196Y92310D02*
X47204Y87980D01*
G01X62717Y72638D02*
X67047D01*
G01X52364Y105711D02*
Y110041D01*
G01X59055Y107483D02*
X54724Y107488D01*
G01X58819Y100475D02*
X54488Y100480D01*
G01X69608Y105632D02*
Y109963D01*
G01X66732Y122835D02*
X62402D01*
G01X52323Y114921D02*
Y119252D01*
G01X53504Y134803D02*
X49173D01*
G01X76437Y21732D02*
G03X70531Y15827I0J-5906D01*
G03X76634Y9921I5909J0D01*
G03X82343Y15827I-193J5899D01*
G03X76437Y21732I-5906J0D01*
G01X100335Y5906D02*
X120020D01*
Y7087D01*
G01X73740Y43819D02*
Y39488D01*
G01X87913Y37717D02*
X83583D01*
G01X76437Y20354D02*
Y11496D01*
G01X71909Y15827D02*
X80965D01*
G01X100335Y25591D02*
X120020D01*
Y24409D01*
G01X75985Y55683D02*
X80316D01*
G01X85631Y55604D02*
X89962D01*
G01X86977Y66063D02*
X91307Y66059D01*
G01X78591Y66030D02*
X82922Y66026D01*
G01X83309Y92797D02*
Y97128D01*
G01X83073Y84923D02*
Y89254D01*
G01X82975Y83389D02*
X87306Y83385D01*
G01X88837Y76614D02*
X88845Y80945D01*
G01X80806Y76896D02*
X80814Y81227D01*
G01X99373Y105235D02*
Y109566D01*
G01X80827Y110945D02*
X85157D01*
G01X85276Y149370D02*
Y145039D01*
G01X110177Y21654D02*
G03X104272Y15748I0J-5906D01*
G03X110374Y9843I5909J0D01*
G03X116083Y15748I-193J5899D01*
G03X110177Y21654I-5906J0D01*
G01X102953Y37008D02*
Y41339D01*
G01X122008Y36220D02*
X117677D01*
G01X110177Y20276D02*
Y11417D01*
G01X105650Y15748D02*
X114705D01*
G01X101852Y52691D02*
X106182D01*
G01X109647Y52612D02*
X113978D01*
G01X117639Y52691D02*
X121970D01*
G01X110461Y68506D02*
X114791Y68600D01*
G01X102078Y68283D02*
X106408Y68378D01*
G01X106069Y85737D02*
X110399Y85831D01*
G01X112082Y79097D02*
X111993Y83426D01*
G01X104046Y79197D02*
X103957Y83527D01*
G01X109528Y91811D02*
Y96142D01*
G01X129488Y74390D02*
Y94075D01*
X130669D01*
G01X123702Y106431D02*
X128033D01*
G01X116735Y100865D02*
Y105196D01*
G01X116696Y109251D02*
Y113582D01*
G01X105867Y103071D02*
X101536Y103076D01*
G01X106143Y111102D02*
X101812Y111107D01*
G01X111555Y144921D02*
Y136063D01*
G01X107028Y140394D02*
X116083D01*
G01X111555Y146299D02*
G03X105650Y140394I0J-5906D01*
G03X111752Y134488I5909J0D01*
G03X117461Y140394I-193J5899D01*
G03X111555Y146299I-5906J0D01*
G01X101713Y130551D02*
X121398D01*
Y131732D01*
G01X101713Y150236D02*
X121398D01*
Y149055D01*
G01X141299Y31260D02*
Y35591D01*
G01X143269Y46431D02*
X147600D01*
G01X134803Y84232D02*
X143661D01*
G01X139331Y79705D02*
Y88760D01*
G01X133425Y84232D02*
G03X139331Y78327I5906J0D01*
G03X145236Y84429I0J5909D01*
G03X139331Y90138I-5899J-193D01*
G03X133425Y84232I0J-5906D01*
G01X149173Y74390D02*
Y94075D01*
X147992D01*
G01X131970Y117494D02*
X136300D01*
G01X147402Y128898D02*
X143071D01*
G01X142953Y110906D02*
X147283D01*
G01X145827Y149626D02*
X137559D01*
G01X145394Y139705D02*
X137126D01*
G54D12*
G01X20098Y48504D02*
G02I-492J0D01*
G01X17382Y96339D02*
G02I-492J0D01*
G01X23287Y126890D02*
G02I-492J0D01*
G01X41988Y45551D02*
G02I-492J0D01*
G01X148642Y139173D02*
G02I-492J0D01*
G54D13*
G01X11508Y27358D02*
X5008D01*
Y10358D01*
X6508D01*
X11508D01*
G01X22508D02*
X29008D01*
Y10458D01*
Y27358D01*
X22508D01*
G01X38161D02*
X31661D01*
Y10358D01*
X33161D01*
X38161D01*
G01X49161D02*
X55661D01*
Y10458D01*
Y27358D01*
X49161D01*
G01X133358Y22240D02*
X126858D01*
Y5240D01*
X128358D01*
X133358D01*
G01X144358D02*
X150858D01*
Y5340D01*
Y22240D01*
X144358D01*
M02*
