G04 ================== begin FILE IDENTIFICATION RECORD ==================*
G04 Layout Name:  SCH_TRANSFER.brd*
G04 Film Name:    TOP*
G04 File Format:  Gerber RS274X*
G04 File Origin:  Cadence Allegro 16.6-2015-S059*
G04 Origin Date:  Sun Dec 07 17:30:41 2025*
G04 *
G04 Layer:  ETCH/TOP*
G04 Layer:  PIN/TOP*
G04 Layer:  VIA CLASS/TOP*
G04 *
G04 Offset:    (0.0000 0.0000)*
G04 Mirror:    No*
G04 Mode:      Positive*
G04 Rotation:  0*
G04 FullContactRelief:  No*
G04 UndefLineWidth:     0.3000*
G04 ================== end FILE IDENTIFICATION RECORD ====================*
%FSLAX25Y25*MOIN*%
%IR0*IPPOS*OFA0.00000B0.00000*MIA0B0*SFA1.00000B1.00000*%
%ADD17R,.035433X.049213*%
%ADD19R,.049213X.035433*%
%ADD22R,.055118X.037402*%
%ADD14C,.031496*%
%ADD20R,.037402X.057091*%
%ADD11R,.057091X.037402*%
%ADD24R,.094488X.062992*%
%ADD21R,.062992X.094488*%
%ADD13C,.03937*%
%ADD16R,.068898X.051181*%
%ADD18R,.051181X.068898*%
%ADD12R,.07087X.120079*%
%ADD15R,.045276X.064961*%
%ADD10R,.06X.1*%
%ADD23R,.055118X.055118*%
%ADD25C,.016*%
%ADD26C,.026*%
%ADD27C,.018*%
G75*
%LPD*%
G75*
G54D10*
X10508Y18858D03*
X23508D03*
X37161D03*
X50161D03*
X132358Y13740D03*
X145358D03*
G54D11*
X8661Y96457D03*
Y104331D03*
X36417Y64685D03*
Y56811D03*
X15276Y55433D03*
Y63307D03*
X50197Y34921D03*
X64882Y68701D03*
X50197Y42795D03*
X64882Y76575D03*
X64567Y126772D03*
Y118898D03*
X51339Y130866D03*
Y138740D03*
X85748Y41654D03*
Y33780D03*
X82992Y107008D03*
Y114882D03*
X119843Y40157D03*
Y32283D03*
X145236Y124961D03*
X145118Y106969D03*
Y114843D03*
X145236Y132835D03*
G54D20*
X69803Y41654D03*
X53071Y68425D03*
X45197D03*
X52087Y52559D03*
X59961D03*
X56260Y117087D03*
X48386D03*
X99016Y39173D03*
X77677Y41654D03*
X81339Y147205D03*
X89213D03*
X106890Y39173D03*
X113465Y93976D03*
X105591D03*
X145236Y33425D03*
X137362D03*
G54D12*
X11260Y83937D03*
G54D21*
X65315Y15827D03*
X99055Y15748D03*
X100433Y140394D03*
G54D13*
X7874Y126024D03*
X149606Y62677D03*
G54D22*
X69882Y52008D03*
Y59094D03*
X87835Y52008D03*
Y59094D03*
X78228Y52008D03*
Y59094D03*
X103819Y49134D03*
Y56220D03*
X119843Y49094D03*
Y56181D03*
X112008Y49094D03*
Y56181D03*
X125827Y110039D03*
Y102953D03*
X145315Y42874D03*
Y49961D03*
X134134Y121063D03*
Y113976D03*
G54D23*
X87559Y11299D03*
Y20354D03*
X121299Y11220D03*
Y20276D03*
X122677Y135866D03*
Y144921D03*
X143858Y95354D03*
X134803D03*
G54D14*
X8661Y110630D03*
X30315Y70276D03*
X28346Y45000D03*
X37697Y93445D03*
X16063Y128386D03*
X14567Y114331D03*
X53071Y61206D03*
X59961Y61457D03*
X54567Y98268D03*
X64882Y83504D03*
X44921Y89843D03*
X99229Y66457D03*
X85630Y89921D03*
X90394Y83701D03*
X75157Y79331D03*
X86339Y101575D03*
X96063Y93976D03*
X81339Y129488D03*
X90866Y107008D03*
X83071Y122402D03*
X72677Y108740D03*
X108780Y65630D03*
X120039Y95276D03*
X112047Y122402D03*
X139291Y65630D03*
X133976Y129488D03*
G54D15*
X15276Y37874D03*
X37165Y34921D03*
Y42795D03*
X15276Y45748D03*
G54D24*
X139331Y73110D03*
G54D25*
G01X8661Y110630D02*
Y104331D01*
G01X25630Y121299D02*
X15118D01*
X8661Y114843D01*
Y110630D01*
G01X15276Y45748D02*
Y55433D01*
G01X37165Y42795D02*
X50197D01*
G01X44665Y56811D02*
X36417D01*
G01Y64685D02*
Y70797D01*
X47381Y81761D01*
X51181D01*
G01X30315Y70276D02*
X34680Y74640D01*
Y77451D01*
G01X22362Y99213D02*
X28478D01*
X30079Y100813D01*
Y109213D01*
X33504Y112638D01*
Y121299D01*
G01X46407Y94409D02*
X42043D01*
X40443Y96009D01*
Y103746D01*
G01X51339Y130866D02*
Y125866D01*
X49843Y124370D01*
X46181D01*
X42520Y120709D01*
Y114291D01*
X33000Y104772D01*
Y99603D01*
X32918Y99521D01*
Y93275D01*
X30580Y90936D01*
Y85551D01*
G01X37697Y93445D02*
X38780Y92362D01*
Y85551D01*
G01X65315Y15827D02*
Y26038D01*
X66915Y27638D01*
X85959D01*
G01X52087Y52559D02*
X48917D01*
X44665Y56811D01*
G01X45197Y68425D02*
Y57343D01*
X44665Y56811D01*
G01X69882Y52008D02*
X78228D01*
G01X64882Y68701D02*
Y43405D01*
X66633Y41654D01*
X69803D01*
G01X64882Y68701D02*
X69434D01*
X71034Y70301D01*
Y90714D01*
G01X53071Y61206D02*
Y68425D01*
G01X69882Y59094D02*
X78228D01*
G01X48543Y99646D02*
Y96546D01*
X46407Y94409D01*
G01D02*
X62967D01*
G01D02*
X64567Y96009D01*
Y99803D01*
G01X59281Y85861D02*
Y90724D01*
X62967Y94409D01*
G01X56467Y103903D02*
Y100168D01*
X54567Y98268D01*
G01X44921Y89843D02*
X51063D01*
X51181Y89961D01*
G01X64882Y76575D02*
Y83504D01*
G01X71034Y90714D02*
Y100325D01*
X77480Y106772D01*
Y125630D01*
X81339Y129488D01*
G01X64567Y108003D02*
Y118898D01*
G01X48386Y117087D02*
Y111103D01*
X48543Y110946D01*
Y107846D01*
G01X99016Y39173D02*
Y25762D01*
X99055Y25723D01*
G01D02*
X100724Y27392D01*
X119630D01*
X121299Y25723D01*
Y20276D01*
G01X99055Y15748D02*
Y25723D01*
G01X85959Y27638D02*
X87559Y26038D01*
Y20354D01*
G01X85748Y33780D02*
Y27849D01*
X85959Y27638D01*
G01X87835Y52008D02*
X91005D01*
X93150Y49863D01*
Y12598D01*
X91850Y11299D01*
X87559D01*
G01X78228Y52008D02*
X87835D01*
G01X90394Y83701D02*
X93740Y80354D01*
Y72322D01*
X92402Y70984D01*
X89302D01*
G01X85748Y41654D02*
X77677D01*
G01X75157Y79331D02*
Y73829D01*
X78002Y70984D01*
X81102D01*
G01D02*
Y65434D01*
X78228Y62560D01*
Y59094D01*
G01X103819Y49134D02*
X100965D01*
X91005Y59094D01*
X87835D01*
G01X78228D02*
X87835D01*
G01X79134Y86614D02*
X82323D01*
G01D02*
X82934D01*
X85202Y84346D01*
Y79084D01*
G01X85630Y89921D02*
X82323Y86614D01*
G01X103947Y107250D02*
Y114793D01*
X100433Y118307D01*
Y140394D01*
G01X81339Y129488D02*
Y147205D01*
G01X90866Y107008D02*
X82992D01*
G01X83071Y122402D02*
Y118131D01*
X82992Y118052D01*
Y114882D01*
G01X119843Y32283D02*
X108804D01*
X106890Y34197D01*
Y39173D01*
G01X119843Y40157D02*
Y49094D01*
G01X104134Y73228D02*
Y68607D01*
X107111Y65630D01*
X108780D01*
G01X145315Y49961D02*
X138702D01*
X115434Y73228D01*
G01X119843Y49094D02*
X112008D01*
G01X103819Y49134D02*
X107977D01*
X108017Y49094D01*
X112008D01*
G01X112334Y73228D02*
X115434D01*
G01D02*
X118622Y76417D01*
Y81614D01*
X113465Y86772D01*
Y93976D01*
G01X112334Y73228D02*
X112402Y73161D01*
G01X125827Y110039D02*
Y116747D01*
X130143Y121063D01*
G01D02*
X134134D01*
G01X130143D02*
X129449Y121757D01*
Y132087D01*
X137480Y140118D01*
Y144764D01*
G01X112047Y111350D02*
Y122402D01*
G01X137480Y144764D02*
X131914D01*
X131756Y144921D01*
X122677D01*
G01X139291Y65630D02*
Y73071D01*
X139331Y73110D01*
G01X145118Y106969D02*
Y101294D01*
X143858Y100035D01*
Y95354D01*
G01X145236Y124961D02*
Y120118D01*
X145118Y120000D01*
Y114843D01*
G01X133976Y129488D02*
X137323Y132835D01*
X145236D01*
G01X145354Y144764D02*
Y138898D01*
X145236Y138780D01*
Y132835D01*
G54D16*
X22362Y99213D03*
Y107087D03*
G54D26*
G01X37161Y18858D02*
X37205Y18815D01*
Y10866D01*
X32874Y6535D01*
X13189D01*
X10508Y9217D01*
Y18858D01*
G01X11260Y72283D02*
X7165Y68189D01*
Y29094D01*
X10508Y25752D01*
Y18858D01*
G01X11260Y83937D02*
Y72283D01*
G01X15276Y63307D02*
Y68268D01*
X11260Y72283D01*
G01Y83937D02*
Y91535D01*
X8661Y94134D01*
Y96457D01*
G01X37165Y34921D02*
X33101D01*
X30970Y32791D01*
G01D02*
Y27049D01*
X37161Y20858D01*
Y18858D01*
G01X28346Y45000D02*
Y35415D01*
X30970Y32791D01*
G01X99229Y66457D02*
X99488D01*
X103819Y62126D01*
Y56220D01*
G01X132358Y13740D02*
X129839Y11220D01*
X121299D01*
G01X137362Y33425D02*
Y43153D01*
X124334Y56181D01*
X119843D01*
G01X112008D02*
X119843D01*
G01X103819Y56220D02*
X111969D01*
X112008Y56181D01*
G01X116347Y103150D02*
X120039Y99457D01*
Y95276D01*
G01X125827Y102953D02*
X117365D01*
X117169Y103150D01*
X116347D01*
G01D02*
X118784Y105586D01*
Y117367D01*
X122677Y121260D01*
Y135866D01*
G01X134134Y101204D02*
X132385Y102953D01*
X125827D01*
G01X116347Y103150D02*
X112047D01*
G01X137362Y33425D02*
Y26365D01*
X132358Y21361D01*
Y13740D01*
G01X134134Y101204D02*
X134803Y100535D01*
Y95354D01*
G01X134134Y113976D02*
Y101204D01*
G54D17*
X34680Y77451D03*
X38780Y85551D03*
X30580D03*
X81102Y70984D03*
X89302D03*
X85202Y79084D03*
X108234Y81328D03*
X104134Y73228D03*
X112334D03*
G54D27*
G01X15276Y37874D02*
X21940D01*
X23740Y39674D01*
Y84146D01*
X14803Y93083D01*
Y103192D01*
G01X15276Y37874D02*
Y33491D01*
X23508Y25258D01*
Y18858D01*
G01X16063Y128386D02*
X18701Y131024D01*
X33386D01*
X41102Y138740D01*
X51339D01*
G01X14803Y103192D02*
X18698Y107087D01*
X22362D01*
G01X14567Y114331D02*
Y103428D01*
X14803Y103192D01*
G01X59961Y52559D02*
Y36721D01*
X58161Y34921D01*
X50197D01*
G01X50161Y18858D02*
Y27760D01*
X50197Y27795D01*
Y34921D01*
G01X59961Y52559D02*
Y61457D01*
G01X64567Y126772D02*
X58465D01*
X56260Y124567D01*
Y117087D01*
G01X51339Y138740D02*
X60394D01*
X64567Y134567D01*
Y126772D01*
G01X72677Y108740D02*
Y124381D01*
X70287Y126772D01*
X64567D01*
G01X79134Y94814D02*
X86328D01*
G01D02*
X99813Y81328D01*
X108234D01*
G01X86339Y101575D02*
Y94825D01*
X86328Y94814D01*
G01X96063Y93976D02*
Y99413D01*
G01D02*
Y114173D01*
X89213Y121024D01*
Y147205D01*
G01X105591Y93976D02*
X101499D01*
X96063Y99413D01*
G01X145236Y33425D02*
Y21487D01*
X145358Y21365D01*
Y13740D01*
G01X145315Y42874D02*
Y33504D01*
X145236Y33425D01*
G54D18*
X33504Y121299D03*
X25630D03*
X137480Y144764D03*
X145354D03*
G54D19*
X40443Y103746D03*
X59281Y85861D03*
X51181Y89961D03*
Y81761D03*
X71034Y90714D03*
X48543Y99646D03*
X64567Y99803D03*
X48543Y107846D03*
X56467Y103903D03*
X64567Y108003D03*
X79134Y86614D03*
Y94814D03*
X103947Y107250D03*
X112047Y103150D03*
Y111350D03*
M02*
